<svg xmlns="http://www.w3.org/2000/svg" xmlns:svg="http://www.w3.org/2000/svg" xmlns:xlink="http://www.w3.org/1999/xlink" xmlns:sodipodi="http://sodipodi.sourceforge.net/DTD/sodipodi-0.dtd" xmlns:inkscape="http://www.inkscape.org/namespaces/inkscape" viewBox="0 0 793.7007874015749 1122.5196850393702" width="793.7007874015749" height="1122.5196850393702">
    <defs><marker id="DistanceX" orient="auto" refX="0.0" refY="0.0" style="overflow:visible"><path d="M 3,-3 L -3,3 M 0,-5 L  0,5" style="stroke:#000000; stroke-width:0.5"/></marker><pattern id="Hatch" patternUnits="userSpaceOnUse" width="8" height="8" x="0" y="0"><path d="M8 4 l-4,4" stroke="#000000" stroke-width="0.25" linecap="square"/><path d="M6 2 l-4,4" stroke="#000000" stroke-width="0.25" linecap="square"/><path d="M4 0 l-4,4" stroke="#000000" stroke-width="0.25" linecap="square"/></pattern><symbol id="*MODEL_SPACE"/><symbol id="*PAPER_SPACE"/><symbol id="_ARCHTICK"><path d="M -0.944882,1123.464567 L 0.944882,1121.574803" style="fill:none;stroke:#000000;stroke-linecap: round"/></symbol><symbol id="_OPEN30"><path style="fill:none;stroke:#000000;stroke-linecap:round" d="M -1.88976 1122.01 L 0 1122.52"/><path style="fill:none;stroke:#000000;stroke-linecap:round" d="M 0 1122.52 L -1.88976 1123.03"/><path style="fill:none;stroke:#000000;stroke-linecap:round" d="M 0 1122.52 L -1.88976 1122.52"/></symbol><symbol id="_DOT"><path d="M -0.472441,1122.519685 A 0.472441,0.472441 0.0 0 0 0.472441,1122.519685 A 0.472441,0.472441 0.0 0 0 -0.472441,1122.519685 z" style="fill:none;stroke:#000000;stroke-linecap: round"/><path style="fill:none;stroke:#000000;stroke-linecap:round" d="M -0.944882 1122.52 L -1.88976 1122.52"/></symbol><symbol id="_OBLIQUE"><path style="fill:none;stroke:#000000;stroke-linecap:round" d="M -0.944882 1123.46 L 0.944882 1121.57"/></symbol><symbol id="_NONE"/><symbol id="&#215;&#197;&#208;&#210;&#197;&#198;_1_1"><path d="M 42.720494,726.574366 L 47.674865,731.092154 L 51.153272,733.836232 L 54.841903,736.258638 L 58.799503,738.268573 L 66.974730,741.821523 L 70.730586,744.022970 L 74.102930,746.756720 L 80.664726,752.666024 L 84.399710,755.183339 L 87.623363,756.610008 L 89.992722,757.248683 L 91.779662,757.489107 L 92.359406,757.513183 L 92.925639,757.505906 L 94.004228,757.389330 L 94.509911,757.276048 L 94.988740,757.123448 L 95.437378,756.929538 L 95.852594,756.692413 L 96.233776,756.412280 L 96.583035,756.091547 L 96.902605,755.732725 L 97.461629,754.910855 L 98.133421,753.455138 L 99.373089,748.744118 L 100.672661,743.801640 L 102.509749,739.261817 L 104.570689,735.764254 L 106.676537,733.211116 L 108.672163,731.452774 L 110.887851,730.075106 L 113.322153,729.113555 L 117.034117,728.375706 L 121.550210,728.108109 L 123.279213,728.093055 L 130.689096,728.050972 L 131.246460,728.050617 L 135.636154,728.218775 L 139.903695,728.912299 L 144.065648,730.198540 L 148.152361,731.923947 L 154.208772,734.983078 L 164.323421,740.135960 L 172.459925,743.746349 L 178.553091,746.007613 L 184.692106,747.772774 L 189.144221,748.585540 L 193.961740,749.261153 L 194.487861,749.428639 L 194.970731,749.637375 L 195.402320,749.894303 L 195.774600,750.206365 L 196.079859,750.580220 L 196.318723,751.015087 L 196.500772,751.502202 L 196.734496,752.596539 L 197.235586,756.726205 L 197.400508,757.232074 L 197.618820,757.689446 L 197.899548,758.090041 L 198.242271,758.433913 L 198.641351,758.725721 L 199.091095,758.970173 L 199.585809,759.171977 L 200.687374,759.466476 L 203.179636,759.750860 L 210.786106,759.989836 L 212.615121,760.001922 L 213.218803,760.002291 L 222.516550,759.802952 L 224.861663,759.682109" style="fill:none;stroke:#000000;stroke-linecap: round"/><path d="M 231.036791,759.363909 L 248.022046,758.488669 L 252.722804,758.423029 L 253.248434,758.423912 L 261.790512,758.704235 L 270.565172,759.508824 L 279.525750,760.854768 L 286.283894,762.296918 L 289.971526,763.627120 L 292.330044,764.989362 L 293.987254,766.402957 L 296.103747,769.026451 L 301.221534,776.537710 L 302.358949,777.639738 L 303.625605,778.536732 L 305.038448,779.202445 L 307.113004,779.776840 L 311.086671,780.156141 L 311.673839,780.166270 L 312.262853,780.169315 L 323.677348,779.864652 L 332.933055,779.666197 L 333.475003,779.665398 L 342.250207,779.937275 L 355.383092,780.982316 L 355.944504,780.981247 L 359.774768,780.679681 L 362.368952,780.065285 L 364.807346,779.029652 L 367.067388,777.561511 L 369.527898,775.311044 L 372.027731,772.145847 L 374.358934,768.023255 L 376.086309,763.602886 L 377.181509,759.138828 L 377.594109,757.530913 L 378.014341,756.511548 L 378.291921,756.022726 L 378.622253,755.552484 L 378.997748,755.115667 L 379.407278,754.730111 L 379.839714,754.413653 L 380.284510,754.182824 L 380.737294,754.040308 L 381.197418,753.980443 L 381.664283,753.997451 L 382.137291,754.085556 L 382.615844,754.238981 L 383.587190,754.718677 L 385.070839,755.783685 L 389.069576,759.550497 L 394.873843,764.673160 L 400.440905,768.860782 L 405.833657,772.411786 L 419.840441,781.038267 L 426.916326,786.023423 L 436.096760,792.445559 L 441.878958,795.871008 L 445.880617,797.793471 L 450.002684,799.383867 L 456.359885,801.285889 L 465.027980,803.288291 L 475.886041,805.724481 L 482.260928,807.572324 L 488.433298,809.977503 L 492.409616,811.956896 L 496.258766,814.275684 L 499.924022,816.947278 L 503.270881,819.949231 L 506.156584,823.255289 L 508.476804,826.835162 L 511.848416,832.528223 L 513.712945,834.907710 L 514.130758,835.312011 L 514.555654,835.634553 L 514.983301,835.845651 L 515.410001,835.921969 L 515.835022,835.869744 L 516.258492,835.703812 L 516.680539,835.439010 L 517.101293,835.090178 L 518.773946,833.151297 L 521.272742,830.186617 L 522.127874,829.479534 L 523.015211,828.944331 L 523.475135,828.745135 L 523.947871,828.593124 L 524.930502,828.420738 L 525.438851,828.393548 L 525.957526,828.401150 L 528.120018,828.711321 L 535.030485,830.480101 L 539.586218,830.983483 L 543.923534,831.430681 L 546.474910,832.034899 L 548.878448,833.073108 L 551.574830,834.844636 L 554.880743,837.897432 L 557.895150,841.473285 L 561.965993,847.191546 L 568.222730,856.428610 L 572.250113,861.516457 L 575.263281,864.631715 L 580.234849,868.965942 L 590.685762,877.351140 L 595.552610,881.913983 L 598.489661,885.237096 L 602.509317,890.563293 L 607.446298,898.009120 L 613.576608,907.241160 L 617.570642,912.411755 L 622.927506,918.942486 L 623.332965,919.316237 L 623.762723,919.640847 L 624.221435,919.905657 L 624.713369,920.100859 L 625.236780,920.229782 L 626.352044,920.343654 L 629.231799,920.438254 L 629.770712,920.535977 L 630.281896,920.692457 L 630.758770,920.921588 L 631.197946,921.229023 L 631.603591,921.600905 L 632.671954,922.936466 L 634.978867,926.681224 L 639.250925,934.270818 L 642.252835,938.145768 L 644.455078,941.080944 L 644.949485,942.060193 L 645.125948,942.549453 L 645.247606,943.038316 L 645.308726,943.526665 L 645.303573,944.014383 L 645.226414,944.501353 L 645.073371,944.987565 L 644.003792,946.946077 L 643.458162,947.951386 L 643.248570,948.465020 L 643.106177,948.987666 L 643.041250,949.519492 L 643.047192,950.058489 L 643.115419,950.602389 L 643.404402,951.695835 L 644.352533,953.841958 L 646.693181,957.750696 L 649.346349,961.277320 L 656.262191,969.750992 L 660.134824,975.137182 L 663.735779,980.758893 L 666.005465,984.754906" style="fill:none;stroke:#000000;stroke-linecap: round"/><path d="M 190.861437,1003.016088 L 191.092961,1003.208071 L 192.098371,1004.022023 L 193.115686,1004.799684 L 194.149793,1005.526161 L 194.850939,1005.974689 L 195.205577,1006.186562 L 195.563167,1006.389438 L 195.883001,1006.561435 L 196.246654,1006.745831 L 196.984561,1007.082304 L 197.737626,1007.372575 L 198.505645,1007.617266 L 199.287721,1007.819109 L 199.572920,1007.881893 L 199.971249,1007.960591 L 200.777079,1008.090027 L 201.594388,1008.184474 L 202.007065,1008.219435 L 202.398770,1008.245340 L 202.816265,1008.265618 L 204.082175,1008.285523 L 205.365859,1008.251251 L 206.664276,1008.172073 L 208.300219,1008.024401" style="fill:none;stroke:#000000;stroke-linecap: round"/><path d="M 133.559193,987.145395 L 133.878277,987.410963 L 145.055779,996.781684 L 151.458432,1002.259688 L 157.879358,1007.882981 L 159.488352,1009.315720 L 165.972944,1015.052193 L 169.268256,1017.843554 L 174.812430,1022.169942 L 175.155439,1022.418595 L 176.882351,1023.632097 L 178.630288,1024.791794 L 180.044922,1025.676964 L 180.400956,1025.891959 L 181.834999,1026.725379 L 183.285551,1027.514100 L 184.753485,1028.255190 L 186.239671,1028.945716 L 187.366814,1029.428664 L 188.505083,1029.880283 L 189.654845,1030.299336 L 190.816465,1030.684596 L 191.989985,1031.035663 L 192.383717,1031.145258 L 193.572292,1031.452378 L 194.771490,1031.727913 L 196.385962,1032.048203 L 198.016953,1032.317239 L 199.663111,1032.537819 L 201.323082,1032.712739 L 202.995512,1032.844797 L 203.415408,1032.871442 L 207.634194,1033.009688 L 208.060315,1033.011737 L 208.913861,1033.009937 L 214.463726,1032.830860 L 214.894360,1032.806548 L 218.341413,1032.569473 L 230.384045,1031.394615 L 241.511399,1030.107451 L 247.736134,1029.335775 L 270.528562,1026.418814 L 270.671623,1026.400746" style="fill:none;stroke:#000000;stroke-linecap: round"/><path d="M 9.448819,997.934940 L 19.793603,995.905248 L 25.969143,994.588610 L 30.725879,993.478750 L 34.801990,992.439498 L 38.849103,991.308779 L 42.862576,990.071957 L 46.837793,988.714471 L 50.775608,987.238705 L 54.689284,985.685508 L 58.584683,984.104736 L 64.443221,981.775476 L 70.364905,979.633997 L 70.763159,979.501697 L 75.424663,978.062715 L 79.478669,976.924481" style="fill:none;stroke:#000000;stroke-linecap: round"/><path d="M 39.921398,766.801039 L 40.074338,767.192182 L 41.171664,769.919230 L 42.162116,772.236280 L 43.034117,774.148070 L 43.957757,776.038722 L 44.739818,777.532829 L 44.942005,777.902978 L 45.780093,779.365925 L 46.441939,780.440741 L 47.134961,781.492220 L 47.861545,782.516639 L 48.623834,783.510563 L 49.421013,784.474108 L 50.250298,785.409751 L 51.108869,786.320016 L 52.597245,787.787574 L 55.742339,790.578912 L 59.024861,793.256376 L 63.977879,797.263369 L 67.147083,800.064768 L 70.088203,803.079189 L 72.696807,806.400029 L 74.870569,810.117998 L 76.682202,814.100298 L 78.508146,817.826305 L 80.740487,820.758161 L 80.994871,820.996180 L 81.520114,821.443353 L 82.066884,821.852925 L 82.634654,822.225955 L 83.222897,822.563505 L 83.831087,822.866635 L 84.458698,823.136405 L 85.105201,823.373876 L 85.770072,823.580108 L 86.452783,823.756161 L 87.152808,823.903097 L 87.869619,824.021975 L 88.602691,824.113856 L 89.351497,824.179801 L 90.503054,824.232406 L 92.493523,824.205421 L 96.711869,823.781127 L 101.191898,822.973531 L 105.867782,821.915188 L 117.982346,819.042213 L 122.825311,818.150137 L 127.567898,817.603816 L 132.144276,817.535808 L 136.504694,818.035839 L 140.678963,818.981688 L 142.713284,819.563152 L 148.686567,821.460183 L 152.628667,822.617471 L 153.023706,822.719528 L 154.608085,823.093515 L 155.802323,823.332823 L 157.002711,823.533549 L 158.209114,823.697092 L 159.421287,823.825277 L 160.638989,823.919928 L 162.270771,823.997114 L 163.911374,824.022248 L 165.973657,823.987053 L 170.132381,823.726703 L 174.329158,823.269361 L 178.555000,822.682575 L 191.317016,820.821000 L 195.569222,820.391890 L 199.805545,820.171064 L 200.227957,820.163037 L 201.914941,820.159865 L 203.597227,820.206229 L 205.274760,820.301644 L 215.758209,820.970804 L 224.160900,821.344728 L 228.359913,821.514758 L 236.738809,821.893267 L 242.996024,822.265901 L 259.310254,823.741621 L 259.727891,823.789311 L 263.913000,824.294948 L 268.117795,824.853817 L 272.347670,825.467248 L 278.738889,826.479114 L 289.451626,828.303867 L 302.254007,830.468199 L 318.590719,832.697039 L 318.996509,832.738603 L 322.620226,833.069031 L 325.795159,833.291426 L 328.534255,833.425426 L 331.234123,833.498136 L 333.515555,833.508344 L 335.778364,833.469651 L 338.427575,833.364689 L 342.305289,833.107754 L 348.559961,832.500947 L 355.689367,831.650363 L 360.896534,831.057214 L 364.990280,831.146148 L 365.263544,831.227010 L 365.710532,831.439630 L 366.012516,831.725794 L 366.168558,832.086583 L 366.190706,832.517678 L 366.091498,833.014555 L 365.883474,833.572690 L 365.579175,834.187558 L 365.191142,834.854636 L 364.731914,835.569398 L 363.937013,836.721055 L 360.877617,841.065231 L 358.389496,845.753217 L 357.655997,850.128028 L 357.681776,850.512769 L 357.783813,851.240425 L 357.951313,851.905721 L 358.182047,852.505028 L 358.473766,853.040453 L 358.824216,853.514499 L 359.231144,853.929671 L 359.692298,854.288472 L 360.205424,854.593408 L 360.768271,854.846981 L 361.378585,855.051696 L 362.034114,855.210057 L 362.732605,855.324568 L 363.471805,855.397734 L 364.249462,855.432059 L 365.063323,855.430046 L 365.911134,855.394200 L 368.164415,855.172997 L 373.124523,854.299680 L 378.454701,853.112660 L 386.527866,851.428656 L 391.577095,850.795417 L 396.274776,850.623263 L 400.681588,850.809271 L 404.858928,851.249642 L 406.880734,851.532778 L 412.770786,852.478287 L 418.558962,853.295481 L 422.463478,853.595997 L 426.472491,853.587710 L 430.591689,853.282478 L 434.788529,852.771526 L 439.029584,852.147920 L 452.423778,850.484257 L 452.835031,850.461570 L 454.469821,850.400315 L 456.087109,850.390241 L 457.689139,850.432718 L 459.280190,850.526992 L 460.864556,850.672289 L 462.446532,850.867837 L 464.427186,851.181761 L 468.430978,852.035500 L 472.547342,853.180368 L 476.843386,854.604292 L 481.380226,856.295791 L 485.994321,858.265677 L 488.190674,859.367177 L 492.068613,861.829015 L 494.869033,864.670262 L 496.122534,867.932070 L 495.512360,871.593439 L 493.440379,875.340767 L 490.519742,878.774419 L 487.374102,881.541996 L 484.789578,884.023929 L 484.597126,884.293042 L 484.260151,884.855338 L 483.993168,885.456178 L 483.800117,886.099200 L 483.678731,886.780444 L 483.626069,887.495135 L 483.639193,888.238497 L 483.715162,889.005752 L 483.851037,889.792125 L 484.043880,890.592839 L 484.290750,891.403118 L 484.588707,892.218185 L 484.934814,893.033263 L 485.326130,893.843576 L 485.759715,894.644348 L 486.232631,895.430802 L 486.482919,895.817168 L 487.009319,896.573190 L 487.567701,897.302952 L 488.155125,898.001680 L 488.768652,898.664596 L 489.405342,899.286923 L 490.062257,899.863886 L 490.736456,900.390707 L 491.425000,900.862611 L 492.125015,901.275048 L 492.834953,901.628187 L 493.554518,901.926631 L 494.283463,902.175159 L 495.021541,902.378548 L 495.768504,902.541575 L 496.524104,902.669018 L 497.288095,902.765654 L 498.449271,902.863297 L 499.627933,902.918500 L 501.628958,902.959984 L 504.085798,903.018376 L 505.335017,903.088718 L 506.596990,903.207989 L 507.020338,903.261406 L 507.870882,903.392314 L 508.726351,903.559300 L 509.586499,903.767143 L 510.447387,904.020417 L 511.292033,904.322981 L 512.100570,904.678533 L 512.853133,905.090774 L 513.529855,905.563404 L 514.110872,906.100121 L 514.577722,906.704221 L 514.935112,907.372326 L 515.206756,908.095586 L 515.416929,908.864987 L 515.589906,909.671516 L 516.128407,912.223746 L 516.395347,913.088660 L 516.746465,913.945638 L 517.205771,914.785470 L 517.778246,915.584749 L 518.437433,916.296615 L 519.153926,916.872009 L 519.898320,917.261872 L 520.641209,917.417145 L 521.354145,917.291634 L 522.030968,916.906059 L 522.688004,916.348612 L 524.356509,914.795733 L 525.065766,914.281732 L 525.800284,913.844967 L 526.558163,913.482406 L 527.337505,913.191019 L 528.136411,912.967775 L 528.952981,912.809642 L 529.785316,912.713588 L 530.631519,912.676584 L 531.489688,912.695598 L 532.357926,912.767599 L 533.234333,912.889555 L 535.448629,913.393110 L 539.876096,915.090612 L 544.104245,917.392894 L 546.069394,918.652425 L 549.597575,921.180108 L 556.304382,926.306719 L 560.032009,929.055033 L 563.570252,931.973321 L 563.894275,932.275394 L 564.819735,933.193442 L 565.392832,933.815563 L 565.926129,934.445972 L 566.415598,935.084855 L 566.857210,935.732400 L 567.246938,936.388791 L 567.580753,937.054216 L 567.854628,937.728860 L 568.064534,938.412909 L 568.206490,939.106548 L 568.279088,939.809872 L 568.284730,940.522841 L 568.226127,941.245405 L 568.105992,941.977515 L 567.927037,942.719119 L 567.240107,944.614342 L 564.983709,948.578755 L 561.833084,952.769908 L 560.028371,954.948558 L 557.355768,958.347850 L 555.143570,961.891177 L 553.703494,965.804683 L 553.072860,970.019469 L 553.179096,974.387391 L 553.949557,978.760247 L 555.311595,982.989837 L 557.192563,986.927964 L 558.305376,988.747105 L 560.837659,992.090339 L 563.731037,995.084506 L 566.928168,997.782800 L 570.371712,1000.238417 L 574.004328,1002.504549 L 575.873620,1003.583182 L 579.682332,1005.664828 L 593.046634,1012.806075 L 598.613626,1015.950295 L 616.868295,1026.271013 L 617.234093,1026.468176 L 621.272926,1028.596641 L 624.976017,1030.458194 L 628.719063,1032.237412 L 634.429461,1034.726043 L 639.328918,1036.631358" style="fill:none;stroke:#000000;stroke-linecap: round"/><path d="M 652.309102,710.696873 L 651.893293,710.760138 L 650.650672,710.971511 L 649.416060,711.218825 L 648.190481,711.506677 L 646.974959,711.839661 L 645.770518,712.222373 L 644.578181,712.659408 L 644.183603,712.817952 L 643.008999,713.334566 L 641.848890,713.916224 L 641.084042,714.342402 L 640.704299,714.567523 L 639.950365,715.042680 L 639.204086,715.552193 L 638.466727,716.096582 L 637.743687,716.672756 L 637.041471,717.276654 L 636.366589,717.904214 L 635.725547,718.551376 L 635.124854,719.214078 L 634.571017,719.888258 L 634.313703,720.228383 L 633.842353,720.912166 L 633.629942,721.254808 L 633.255720,721.939054 L 633.095534,722.279644 L 632.833083,722.955217 L 632.732443,723.289185 L 632.594985,723.947524 L 632.540831,724.592619 L 632.544085,724.910129 L 632.609437,725.534930 L 632.670809,725.842164 L 632.849127,726.446158 L 632.965347,726.742860 L 633.250091,727.325532 L 633.417889,727.611446 L 633.802518,728.172284 L 634.250104,728.718280 L 634.496597,728.985642 L 635.033168,729.508948 L 635.322518,729.764835 L 635.941533,730.264938 L 636.270470,730.509095 L 636.965389,730.985480 L 637.330644,731.217650 L 638.094926,731.669804 L 638.901817,732.105518 L 639.320332,732.317140 L 640.631798,732.926717 L 642.019513,733.497765 L 643.473666,734.029515 L 644.984446,734.521195 L 646.542044,734.972035 L 648.136648,735.381265 L 649.758448,735.748115 L 651.397633,736.071815 L 653.044393,736.351594 L 654.688918,736.586681 L 655.234900,736.654979 L 659.452999,737.013364 L 659.971116,737.035510 L 661.494600,737.069884 L 662.483309,737.066475 L 663.927732,737.023863 L 665.328377,736.938767 L 666.688160,736.814018 L 668.009996,736.652444 L 669.296801,736.456874 L 670.551491,736.230138 L 672.179490,735.884233 L 672.579189,735.790671 L 674.152017,735.391224 L 675.688482,734.956490 L 677.568455,734.373664 L 679.702567,733.661260" style="fill:none;stroke:#000000;stroke-linecap: round"/><path d="M 599.733871,768.949837 L 600.133470,769.088689 L 608.215988,771.969525 L 612.146190,773.702483 L 612.525746,773.893089 L 613.644750,774.486864 L 614.730527,775.115883 L 615.778280,775.783112 L 616.118252,776.014525 L 617.107842,776.737313 L 617.740520,777.244060 L 618.349919,777.771732 L 618.645671,778.043536 L 619.219956,778.602572 L 619.772369,779.181378 L 620.562825,780.084557 L 620.816784,780.394461 L 621.552362,781.349026 L 622.251907,782.338349 L 622.919814,783.359187 L 623.560475,784.408298 L 624.379903,785.845490 L 625.362925,787.692851 L 632.891261,801.336636 L 633.153736,801.692910 L 633.971513,802.744217 L 634.543733,803.423730 L 635.139276,804.076447 L 635.446250,804.390086 L 636.079513,804.986581 L 636.739745,805.534911 L 637.428404,806.026527 L 638.146949,806.452881 L 638.896838,806.805424 L 639.679529,807.075610 L 640.496296,807.255023 L 641.342284,807.339691 L 642.205203,807.331029 L 643.072317,807.230776 L 643.930892,807.040668 L 644.768192,806.762446 L 645.571481,806.397848 L 646.328023,805.948611 L 647.025084,805.416474 L 647.650543,804.803549 L 647.935793,804.469358 L 648.458356,803.755659 L 648.926927,802.995395 L 649.353416,802.205196 L 649.940299,801.000148 L 650.876756,799.077649 L 651.271486,798.387224 L 651.695596,797.766644 L 652.160994,797.232538 L 652.677239,796.797574 L 653.244215,796.458109 L 653.859314,796.206301 L 654.519927,796.034309 L 655.223448,795.934291 L 655.967267,795.898407 L 656.748779,795.918815 L 657.565374,795.987674 L 658.414445,796.097142 L 663.234954,797.014275 L 665.232610,797.371444 L 666.761232,797.580930 L 667.789890,797.678080 L 668.822398,797.733832 L 670.852725,797.771467 L 672.287919,797.811256 L 673.175753,797.879649 L 673.991449,798.004160 L 674.720461,798.204181 L 675.047916,798.338569 L 675.619633,798.688217 L 676.068312,799.161848 L 676.386086,799.769180 L 676.584363,800.492023 L 676.678008,801.307174 L 676.681886,802.191430 L 676.610863,803.121589 L 676.479805,804.074449 L 676.396408,804.552140 L 676.203169,805.495547 L 675.868127,806.853450 L 675.492291,808.145985 L 675.087370,809.384781 L 674.379674,811.361607 L 673.282284,814.415613 L 672.920009,815.564208 L 672.602811,816.732716 L 672.422171,817.528528 L 672.270239,818.341804 L 672.150485,819.175991 L 672.066380,820.034520 L 672.022479,820.916213 L 672.017834,821.361934 L 672.047920,822.254207 L 672.136853,823.135704 L 672.292254,823.992160 L 672.521741,824.809313 L 672.832934,825.572899 L 673.233451,826.268652 L 673.729997,826.883446 L 674.317632,827.418605 L 674.983389,827.885414 L 675.714144,828.295357 L 675.801121,828.339059" style="fill:none;stroke:#000000;stroke-linecap: round"/><path d="M 41.083399,924.274166 L 40.828058,924.122547 L 28.709649,917.217040 L 28.338210,917.021398 L 23.788005,914.721977" style="fill:none;stroke:#000000;stroke-linecap: round"/><path d="M 29.853579,900.248673 L 30.268751,900.317092 L 46.860788,903.112045 L 58.549139,905.270392 L 67.093548,907.028991 L 72.762597,908.308181 L 78.405842,909.688614 L 84.018370,911.190709 L 89.592631,912.847307 L 95.120797,914.692560 L 95.517721,914.833925 L 98.288078,915.857043 L 106.020679,919.029663 L 107.973282,919.868291 L 113.842203,922.333383 L 117.783965,923.850216 L 121.767608,925.187178 L 122.168888,925.308387 L 123.780106,925.767148 L 125.401844,926.180957 L 127.035119,926.545501 L 128.680950,926.856466 L 129.924175,927.051934 L 131.175466,927.213019 L 132.435251,927.337901 L 133.703956,927.424773 L 134.128872,927.445124 L 135.409195,927.481920 L 137.127756,927.479645 L 138.856985,927.426975 L 145.830055,926.892669 L 160.555038,926.217697 L 160.959862,926.251280 L 162.164330,926.380800 L 163.352922,926.556433 L 164.524517,926.781988 L 165.677997,927.061275 L 166.058272,927.166969 L 166.812243,927.398102 L 167.557169,927.656500 L 168.292896,927.942745 L 168.657410,928.096033 L 169.738193,928.594772 L 170.800949,929.148677 L 171.151443,929.344874 L 172.192389,929.966056 L 173.218649,930.632984 L 173.557719,930.864762 L 174.566622,931.586406 L 175.564177,932.344376 L 175.894422,932.604407 L 177.205441,933.677419 L 182.464797,938.436680 L 193.837768,948.267010 L 194.178628,948.523047 L 198.618018,951.688239 L 198.967417,951.925135 L 201.428406,953.549361 L 208.483786,957.846505 L 208.845761,958.055218 L 212.848291,960.304413 L 218.617823,963.403512" style="fill:none;stroke:#000000;stroke-linecap: round"/><path d="M 437.604582,917.160971 L 437.400738,916.769214 L 436.369343,914.833009 L 435.728246,913.712570 L 435.058977,912.644381 L 434.592508,911.969885 L 434.106562,911.331511 L 433.598356,910.734422 L 433.335055,910.452931 L 432.789559,909.924698 L 432.219426,909.441104 L 431.925332,909.215405 L 431.319515,908.794922 L 430.690753,908.413946 L 430.039727,908.070426 L 429.367111,907.762310 L 429.022920,907.620886 L 428.319193,907.362027 L 427.595571,907.133440 L 426.852732,906.933073 L 426.091353,906.758874 L 425.703923,906.680946 L 424.515687,906.480771 L 423.290309,906.325619 L 422.030076,906.208565 L 420.299498,906.099784 L 419.858442,906.079323 L 415.286113,905.952325 L 410.478936,905.786855 L 405.521605,905.326446 L 397.760870,903.896376 L 397.272028,903.798107 L 394.388801,903.253558 L 392.525999,902.961929 L 391.167435,902.798365 L 389.846770,902.693732 L 388.989543,902.661895 L 388.152404,902.664016 L 387.336650,902.703204 L 386.937197,902.737669 L 386.155953,902.838282 L 385.399338,902.983729 L 384.668649,903.177117 L 383.965184,903.421554 L 383.624066,903.563886 L 382.963869,903.890722 L 382.334140,904.276373 L 381.736177,904.723947 L 381.171276,905.236552 L 380.901629,905.518212 L 380.388755,906.134189 L 379.912256,906.822744 L 379.688701,907.193129 L 379.275551,907.975986 L 378.914082,908.800481 L 378.611976,909.649235 L 378.376911,910.504873 L 378.286920,910.929843 L 378.166820,911.763224 L 378.132964,912.560045 L 378.150778,912.939316 L 378.260096,913.649678 L 378.466419,914.293715 L 378.764728,914.874629 L 379.149915,915.395764 L 379.373492,915.634960 L 379.879420,916.072700 L 380.459456,916.459027 L 381.108493,916.797284 L 381.821423,917.090819 L 382.200251,917.221860 L 382.999442,917.454583 L 383.849756,917.650947 L 384.292488,917.736539 L 385.209909,917.884637 L 386.656356,918.055338 L 388.171858,918.174342 L 388.689391,918.204472 L 393.269343,918.339022 L 404.719270,918.984496 L 405.157504,919.035571 L 419.090589,920.372451 L 419.457295,920.368190 L 424.832151,920.305328 L 426.083927,920.345582 L 427.387279,920.426171 L 428.749529,920.556712 L 430.178001,920.746825 L 430.670140,920.825096 L 432.198300,921.109597 L 433.805733,921.472767 L 436.450987,922.088470 L 437.388086,922.250975 L 438.199335,922.320184 L 438.846932,922.265815 L 439.293074,922.057584 L 439.501972,921.666793 L 439.477906,921.096219 L 439.262035,920.377607 L 438.896889,919.543784 L 438.671629,919.093926 L 437.888896,917.661807 L 437.604582,917.160971 z" style="fill:none;stroke:#000000;stroke-linecap: round"/><path d="M 387.765360,879.834108 L 387.549054,879.465383 L 386.452007,877.636909 L 385.765406,876.567535 L 385.042895,875.533231 L 384.535361,874.868951 L 384.003001,874.228917 L 383.442267,873.616592 L 382.849664,873.035411 L 382.223856,872.487488 L 381.898993,872.226104 L 381.226499,871.728604 L 380.525175,871.264947 L 379.796857,870.835312 L 379.423149,870.633311 L 378.657781,870.255053 L 378.266581,870.078841 L 377.468294,869.752367 L 376.650355,869.460642 L 375.814599,869.203849 L 375.390614,869.088608 L 374.531575,868.884552 L 374.096980,868.795781 L 373.218788,868.644870 L 372.775649,868.582775 L 371.882434,868.485418 L 370.981497,868.423990 L 370.074674,868.398674 L 369.163802,868.409649 L 368.250714,868.457099 L 367.337248,868.541204 L 366.425237,868.662146 L 365.516519,868.820107 L 364.612928,869.015267 L 363.716300,869.247810 L 362.828470,869.517915 L 362.388428,869.667110 L 361.517237,869.993900 L 360.659434,870.358707 L 359.816916,870.761703 L 359.402552,870.977501 L 358.592158,871.437354 L 358.198028,871.681263 L 357.436652,872.196678 L 357.071306,872.468038 L 356.376047,873.037692 L 355.734364,873.642771 L 355.153857,874.282686 L 354.888919,874.615524 L 354.414424,875.306592 L 354.206767,875.664675 L 353.855383,876.405574 L 353.595571,877.178958 L 353.434931,877.984238 L 353.393806,878.398299 L 353.388511,879.242930 L 353.423064,879.670285 L 353.563374,880.527039 L 353.667853,880.953224 L 353.942265,881.793173 L 354.299686,882.605849 L 354.735004,883.378393 L 354.980277,883.745598 L 355.522854,884.433839 L 355.818880,884.751661 L 356.457065,885.327248 L 357.149663,885.823253 L 357.886242,886.247816 L 358.267739,886.435954 L 359.050576,886.769240 L 359.449286,886.916507 L 360.254721,887.177582 L 360.658816,887.293509 L 361.862129,887.594807 L 362.258753,887.681588 L 363.436921,887.904042 L 364.600878,888.073842 L 365.754926,888.196353 L 366.138150,888.227609 L 367.285679,888.295417 L 368.433337,888.328459 L 369.971185,888.327710 L 374.715993,888.139990 L 383.595739,887.960616 L 384.100591,887.978151 L 388.757693,888.275720 L 390.252527,888.350795 L 391.156227,888.357820 L 391.957221,888.315604 L 392.631151,888.211444 L 392.912855,888.132165 L 393.350513,887.911271 L 393.601962,887.597574 L 393.667579,887.191049 L 393.635847,886.955546 L 393.453845,886.425323 L 393.307793,886.132711 L 392.916130,885.497753 L 392.674737,885.157514 L 392.111372,884.436782 L 391.454626,883.669402 L 390.331322,882.449302 L 387.765360,879.834108 z" style="fill:none;stroke:#000000;stroke-linecap: round"/><path d="M 607.471358,941.093753 L 606.865656,941.152592 L 602.398311,941.696254 L 601.934462,941.782449 L 601.501579,941.874851 L 601.103469,941.973960 L 600.743296,942.080384 L 600.424226,942.194735 L 600.149424,942.317623 L 599.922055,942.449658 L 599.745284,942.591450 L 599.622276,942.743611 L 599.556195,942.906750 L 599.549995,943.081385 L 599.603325,943.266595 L 599.713217,943.460318 L 599.876633,943.660460 L 600.090533,943.864930 L 600.351879,944.071634 L 600.657633,944.278480 L 601.004756,944.483374 L 601.390208,944.684224 L 601.810952,944.878937 L 602.263948,945.065421 L 602.746159,945.241582 L 603.254544,945.405327 L 603.786066,945.554565 L 604.337686,945.687201 L 604.906365,945.801144 L 605.489065,945.894300 L 606.082746,945.964577 L 606.684370,946.009881 L 607.290776,946.028274 L 607.897317,946.019657 L 608.498372,945.985147 L 609.088298,945.925885 L 609.661456,945.843009 L 610.212203,945.737659 L 610.734900,945.610974 L 611.223906,945.464094 L 611.673579,945.298157 L 612.078279,945.114303 L 612.432364,944.913671 L 612.730195,944.697402 L 612.966129,944.466633 L 613.134527,944.222504 L 613.229746,943.966155 L 613.246147,943.698725 L 613.178377,943.421429 L 613.028253,943.137379 L 612.805092,942.851669 L 612.518562,942.569485 L 612.178331,942.296014 L 611.794067,942.036443 L 611.375437,941.795958 L 610.932110,941.579747 L 610.473754,941.392996 L 610.010036,941.240892 L 609.550625,941.128622 L 609.104770,941.060893 L 608.674583,941.034229 L 608.256203,941.038312 L 607.845587,941.062611 L 607.471358,941.093753 z" style="fill:none;stroke:#000000;stroke-linecap: round"/><path d="M 669.093106,926.002348 L 668.783768,926.209251 L 667.856185,926.843948 L 667.008064,927.477370 L 666.632531,927.793302 L 666.341737,928.065879 L 666.146402,928.270950 L 665.973868,928.475656 L 665.826208,928.679962 L 665.705494,928.883835 L 665.613799,929.087242 L 665.553195,929.290151 L 665.525756,929.492526 L 665.533555,929.694336 L 665.578664,929.895546 L 665.662794,930.095995 L 665.784319,930.294326 L 665.939806,930.488538 L 666.125805,930.676623 L 666.338867,930.856573 L 666.575543,931.026381 L 666.832382,931.184039 L 667.105935,931.327539 L 667.392752,931.454873 L 667.689384,931.564034 L 667.992381,931.653014 L 668.298293,931.719805 L 668.603671,931.762399 L 668.905064,931.778790 L 669.199024,931.766968 L 669.482452,931.725346 L 669.754186,931.654641 L 670.013722,931.556357 L 670.260558,931.431999 L 670.494191,931.283070 L 670.714119,931.111075 L 670.919840,930.917520 L 671.110850,930.703908 L 671.286648,930.471744 L 671.446731,930.222533 L 671.590597,929.957779 L 671.717742,929.678987 L 671.827665,929.387662 L 671.919863,929.085307 L 671.993834,928.773428 L 672.049075,928.453529 L 672.085084,928.127114 L 672.101358,927.795689 L 672.097395,927.460757 L 672.072710,927.124019 L 672.027119,926.790402 L 671.960681,926.467479 L 671.873463,926.162900 L 671.765534,925.884318 L 671.636960,925.639384 L 671.487810,925.435748 L 671.318149,925.281062 L 671.128047,925.182978 L 670.918032,925.146219 L 670.690276,925.165133 L 670.447314,925.231765 L 670.191679,925.338163 L 669.925906,925.476373 L 669.652530,925.638443 L 669.224011,925.915345 L 669.093106,926.002348 z" style="fill:none;stroke:#000000;stroke-linecap: round"/><path d="M 627.773847,837.027116 L 627.273750,837.004756 L 624.809333,836.921651 L 623.396634,836.924263 L 622.499490,836.961534 L 622.067405,836.993288 L 621.241365,837.087134 L 620.849470,837.150864 L 620.113083,837.316042 L 619.770652,837.419129 L 619.142467,837.670398 L 618.858774,837.820220 L 618.357060,838.172055 L 617.944182,838.593260 L 617.770336,838.828579 L 617.486261,839.345920 L 617.375401,839.626850 L 617.214467,840.230501 L 617.163764,840.552130 L 617.120312,841.232265 L 617.126935,841.589680 L 617.195304,842.336474 L 617.256423,842.724761 L 617.430954,843.528387 L 617.543738,843.942634 L 617.818771,844.793266 L 617.980390,845.228560 L 618.350264,846.116373 L 618.780221,847.023515 L 619.016945,847.482969 L 619.532309,848.410915 L 619.810322,848.878314 L 620.405434,849.817238 L 620.721905,850.287671 L 621.391105,851.227747 L 621.743205,851.696299 L 622.865730,853.089460 L 624.080992,854.452416 L 625.380480,855.770451 L 626.753540,857.031452 L 628.185450,858.228247 L 629.661033,859.354215 L 631.165111,860.402734 L 632.682508,861.367185 L 634.198046,862.240945 L 635.696548,863.017394 L 637.162837,863.689911 L 637.641818,863.889843 L 638.581735,864.251875 L 639.041547,864.413484 L 639.938066,864.696664 L 640.373649,864.817744 L 641.216652,865.017659 L 641.622947,865.096002 L 642.402316,865.208237 L 642.774264,865.241637 L 643.479880,865.261778 L 643.812423,865.248028 L 644.434169,865.171661 L 644.722247,865.108554 L 645.250003,864.931265 L 645.488558,864.816593 L 645.912208,864.533969 L 646.260832,864.178668 L 646.405604,863.973152 L 646.633257,863.505159 L 646.715015,863.242192 L 646.813193,862.658710 L 646.830954,862.340176 L 646.807907,861.655209 L 646.768734,861.291053 L 646.639171,860.525082 L 646.550417,860.125544 L 646.329049,859.299051 L 646.198069,858.874371 L 645.899604,858.007836 L 645.733754,857.568256 L 645.179536,856.237919 L 644.557480,854.914082 L 643.889650,853.627467 L 643.197001,852.406705 L 642.488102,851.257096 L 641.763763,850.169328 L 641.024676,849.133866 L 640.271535,848.141176 L 637.024618,844.285178 L 633.010416,839.728328 L 632.707788,839.424539 L 632.081051,838.852211 L 631.420007,838.340941 L 631.074495,838.113473 L 630.349240,837.725418 L 629.967903,837.568820 L 629.171907,837.323069 L 628.761637,837.225038 L 627.773847,837.027116 z" style="fill:none;stroke:#000000;stroke-linecap: round"/><path d="M 417.698109,737.764876 L 417.041774,737.809963 L 413.867970,738.061701 L 410.914552,738.367171 L 408.747695,738.659304 L 407.255413,738.910796 L 405.890298,739.193293 L 404.664306,739.509710 L 403.930173,739.740938 L 403.266729,739.989401 L 402.677518,740.255962 L 402.166081,740.541486 L 401.735963,740.846836 L 401.390704,741.172875 L 401.133849,741.520469 L 400.968940,741.890479 L 400.899520,742.283771 L 400.929131,742.701207 L 401.061317,743.143653 L 401.299619,743.611970 L 401.647513,744.106974 L 402.102748,744.625285 L 402.653126,745.156241 L 403.285457,745.688453 L 403.986548,746.210529 L 404.743207,746.711080 L 405.542242,747.178714 L 406.370463,747.602041 L 407.214676,747.969672 L 408.062572,748.271413 L 408.909778,748.507859 L 409.756119,748.685307 L 410.601457,748.810108 L 411.445655,748.888611 L 412.288576,748.927167 L 413.130084,748.932127 L 414.389393,748.890462 L 414.808308,748.866654 L 416.895692,748.708941 L 418.969525,748.559531 L 420.206480,748.513309 L 420.617543,748.507348 L 421.437824,748.509322 L 422.663729,748.546291 L 423.884368,748.622899 L 425.099915,748.737831 L 426.310543,748.889770 L 427.516426,749.077398 L 428.717738,749.299401 L 429.914651,749.554461 L 431.503993,749.943688 L 431.900204,750.049446 L 433.480736,750.504821 L 435.054683,751.009603 L 436.622457,751.560671 L 438.184467,752.154906 L 440.129502,752.953648 L 442.066978,753.808868 L 447.996969,756.733748 L 448.380277,756.935916 L 451.823405,758.804273 L 455.639143,760.952465 L 465.173844,766.342759 L 469.002734,768.378816 L 469.386519,768.575430 L 471.693414,769.722620 L 474.008486,770.806687 L 480.116058,773.337870 L 480.507850,773.485389 L 482.866766,774.339543 L 491.210549,776.957099 L 491.615372,777.070605 L 495.284915,778.053991 L 499.421310,779.079937 L 514.102147,782.628132 L 514.517051,782.740401 L 517.400704,783.560596 L 519.837449,784.319291 L 520.239882,784.451444 L 522.234200,785.139245 L 524.195664,785.876079 L 525.738335,786.504485 L 527.255100,787.170504 L 528.743793,787.876908 L 530.202244,788.626465 L 531.628286,789.421946 L 532.675245,790.050360 L 533.701840,790.707334 L 534.707155,791.394036 L 535.690455,792.111404 L 536.652290,792.858722 L 537.593778,793.634542 L 538.516036,794.437413 L 539.717739,795.547483 L 540.013446,795.831709 L 541.178639,796.993836 L 542.317611,798.193742 L 543.433014,799.427988 L 547.569577,804.455880 L 547.830127,804.792424 L 550.408105,808.206616 L 558.181721,818.540667 L 560.914778,821.847115 L 561.193654,822.171477 L 562.888900,824.091811 L 564.622777,825.965414 L 566.396587,827.788920 L 567.906204,829.267812 L 569.445209,830.707630 L 571.014354,832.106425 L 572.614391,833.462250 L 574.246075,834.773156 L 575.910157,836.037197 L 577.607390,837.252423 L 578.989552,838.188150 L 580.393798,839.090391 L 581.820510,839.958156 L 583.269388,840.791520 L 585.108941,841.788491 L 586.976543,842.740620 L 589.249307,843.831315 L 595.607254,846.602438 L 601.061464,848.812889 L 604.558485,850.268202 L 606.859982,851.294841 L 608.750999,852.203495 L 610.241958,852.974338 L 611.710217,853.791269 L 612.794697,854.438126 L 613.863434,855.117311 L 614.915154,855.831569 L 615.948580,856.583644 L 616.962440,857.376282 L 617.956165,858.210309 L 619.256621,859.367030 L 622.464910,862.255683 L 623.437666,863.058269 L 624.424810,863.803889 L 625.093578,864.261703 L 625.772760,864.682772 L 626.463963,865.062525 L 627.168759,865.396569 L 627.887916,865.684556 L 628.621401,865.930143 L 629.369147,866.137163 L 630.131087,866.309447 L 630.907155,866.450825 L 632.097600,866.613327 L 633.319457,866.727843 L 634.997073,866.828237 L 639.430173,867.007714 L 644.193660,867.461127 L 649.137150,868.443009 L 649.629580,868.570539 L 651.095819,868.984765 L 652.538761,869.446165 L 653.949769,869.954381 L 655.320204,870.509054 L 656.641427,871.109824 L 657.904801,871.756332 L 658.710645,872.212570 L 659.484379,872.688870 L 660.223444,873.185125 L 660.925280,873.701229 L 661.587327,874.237075 L 661.902630,874.512369 L 662.500196,875.077629 L 663.051573,875.662366 L 663.554204,876.266473 L 664.005529,876.889844 L 664.402988,877.532371 L 664.744021,878.193949 L 665.026068,878.874471 L 665.246572,879.573831 L 665.402971,880.291922 L 665.492707,881.028638 L 665.513690,881.783814 L 665.470658,882.556449 L 665.373497,883.344908 L 665.232218,884.147541 L 664.959481,885.374458 L 663.848954,890.024273 L 663.715154,890.880909 L 663.627342,891.736873 L 663.595525,892.590513 L 663.625989,893.440555 L 663.714090,894.286818 L 663.853186,895.129324 L 664.036636,895.968092 L 664.257799,896.803143 L 664.645728,898.048794 L 665.081154,899.286198 L 666.849556,904.154719 L 667.082584,904.953727 L 667.280273,905.749244 L 667.435980,906.541290 L 667.543066,907.329886 L 667.594888,908.115051 L 667.584811,908.896807 L 667.509274,909.675305 L 667.373036,910.451044 L 667.182246,911.224586 L 666.943054,911.996491 L 666.661610,912.767317 L 666.344063,913.537625 L 665.813504,914.693341 L 665.037129,916.237709 L 663.056307,920.143456 L 662.535893,921.335402 L 662.227100,922.136967 L 661.955969,922.944728 L 661.725998,923.758860 L 661.536100,924.578869 L 661.384729,925.404194 L 661.270336,926.234274 L 661.191376,927.068549 L 661.146301,927.906459 L 661.133564,928.747443 L 661.138838,929.168912 L 661.198915,930.436390 L 661.321311,931.707000 L 661.500802,932.978851 L 661.732170,934.250050 L 662.010192,935.518707 L 662.329646,936.782928 L 662.685312,938.040823 L 663.206839,939.704903 L 663.771083,941.349889 L 664.519635,943.373694 L 665.308383,945.362419 L 668.190695,951.819476 L 668.372065,952.196597 L 670.038492,955.560906 L 670.793691,957.040378" style="fill:none;stroke:#000000;stroke-linecap: round"/><path d="M 494.779578,741.334681 L 495.165130,741.501387 L 503.422142,744.730062 L 503.823216,744.858507 L 505.437904,745.346372 L 512.466150,747.116256 L 527.312520,751.362825 L 527.692579,751.525684 L 528.821453,752.038612 L 529.933245,752.588467 L 530.300256,752.779532 L 531.391288,753.374521 L 532.824667,754.214581 L 534.236828,755.101588 L 537.861374,757.596742 L 538.203103,757.844499 L 541.602197,760.371383 L 550.539549,766.702740 L 550.897462,766.928117 L 553.069800,768.252028 L 553.436135,768.468465 L 558.746427,771.435129 L 564.606111,774.475812 L 566.674335,775.524148 L 575.403417,779.984349 L 580.067055,782.470314 L 584.559198,784.974441 L 592.064600,789.356026 L 594.673041,790.912867 L 613.055663,801.847867 L 618.913335,805.133047 L 625.960265,808.769991 L 626.417733,808.989380 L 628.659598,810.026378 L 630.820188,810.956546 L 632.485211,811.618271 L 634.482508,812.349450 L 640.469675,814.263033 L 640.786490,814.359988 L 643.154652,815.114668 L 644.224107,815.493459 L 644.974173,815.785975 L 645.678572,816.090162 L 646.336341,816.410025 L 646.545068,816.520822 L 646.946514,816.749569 L 647.326377,816.988844 L 647.684371,817.239833 L 647.855078,817.370091 L 648.179734,817.640877 L 648.481805,817.926343 L 648.761007,818.227678 L 648.891942,818.384667 L 649.136303,818.712029 L 649.357080,819.058226 L 649.553986,819.424445 L 649.726736,819.811873 L 649.875043,820.221695 L 649.998622,820.655100 L 650.097186,821.113274 L 650.137006,821.352016 L 650.198580,821.848869 L 650.238661,822.370680 L 650.265373,823.197864 L 650.261436,824.075213 L 650.204125,825.966028 L 650.151741,828.014372 L 650.161535,829.453251 L 650.210264,830.564843 L 650.306273,831.700241 L 650.459863,832.855703 L 650.675755,834.024924 L 650.953955,835.199436 L 651.294317,836.370702 L 651.696700,837.530187 L 651.999341,838.292417 L 652.329440,839.043087 L 652.504773,839.413298 L 652.875980,840.141887 L 653.274540,840.852594 L 653.700410,841.542890 L 653.923573,841.879593 L 654.390329,842.534530 L 654.884288,843.162732 L 655.405409,843.761670 L 655.676127,844.049437 L 656.237445,844.601594 L 656.824475,845.123524 L 657.436258,845.616355 L 658.071835,846.081213 L 658.730245,846.519227 L 659.410530,846.931525 L 660.111731,847.319234 L 660.469875,847.504220 L 661.200650,847.857161 L 662.331233,848.346106 L 663.500243,848.789877 L 664.704441,849.192279 L 665.940591,849.557118 L 666.359181,849.671042 L 667.632896,849.991718 L 672.551427,850.961783 L 673.003672,851.036141 L 675.067743,851.356801" style="fill:none;stroke:#000000;stroke-linecap: round"/><path d="M 478.924550,745.972282 L 479.320020,746.122184 L 480.890806,746.741668 L 482.440297,747.399294 L 483.963776,748.103510 L 485.086479,748.667330 L 485.456528,748.862766 L 486.553089,749.473409 L 487.627722,750.123329 L 488.678437,750.816089 L 489.704037,751.553719 L 490.708716,752.327804 L 491.040073,752.591728 L 494.317663,755.271638 L 495.643810,756.298051 L 496.658294,757.022621 L 497.696975,757.694217 L 498.405799,758.106733 L 499.128033,758.490611 L 499.863093,758.847205 L 500.988457,759.333900 L 502.139399,759.766827 L 502.528390,759.899978 L 503.710372,760.268328 L 504.913336,760.593583 L 506.135313,760.880315 L 507.374333,761.133099 L 512.244087,761.869721 L 512.674555,761.921877 L 526.197116,763.908532 L 526.602976,764.018430 L 527.802128,764.380734 L 528.970563,764.796547 L 529.730506,765.106403 L 530.473872,765.444422 L 531.199491,765.812355 L 531.906225,766.211906 L 532.594085,766.643042 L 533.264527,767.103540 L 533.919100,767.591040 L 534.874594,768.367754 L 535.186835,768.637601 L 536.107499,769.475839 L 537.008141,770.350924 L 542.229015,775.872248 L 542.528844,776.178450 L 543.750083,777.376860 L 544.694453,778.239685 L 545.015693,778.518865 L 546.001474,779.326991 L 547.024410,780.084796 L 547.729592,780.558107 L 548.454723,781.003747 L 549.198412,781.423374 L 550.343749,782.010324 L 550.732335,782.196081 L 551.914518,782.728706 L 553.518437,783.394778 L 563.139784,787.794512 L 563.474648,788.026200 L 564.124669,788.512420 L 564.746512,789.031493 L 565.337895,789.586296 L 565.896535,790.179703 L 566.421999,790.812522 L 566.921170,791.477390 L 567.639635,792.514257 L 567.875391,792.865737 L 569.075063,794.614292 L 569.584863,795.287788 L 570.120420,795.936937 L 570.680247,796.562909 L 571.262433,797.167314 L 572.173455,798.037001 L 573.124034,798.867215 L 574.107720,799.663388 L 575.118062,800.430952 L 576.495503,801.419256 L 578.595819,802.852439 L 588.982519,809.524442 L 594.284158,812.895137 L 599.531245,816.374138 L 611.986371,824.266933 L 612.357722,824.463340 L 613.857825,825.222677 L 615.383354,825.936369 L 616.932122,826.607414 L 620.847894,828.189523 L 624.712332,829.814986 L 628.390224,831.700102 L 633.258107,834.819422 L 633.604228,835.058147 L 642.518171,841.338004 L 642.853550,841.616028 L 643.502131,842.187203 L 644.116367,842.781047 L 644.690526,843.400561 L 645.218876,844.048745 L 645.695686,844.728601 L 646.115224,845.443127 L 646.471758,846.195326 L 646.759558,846.988198 L 646.973041,847.824640 L 647.118092,848.699647 L 647.731505,852.967478 L 647.863245,853.330465 L 648.209002,853.988573 L 648.681761,854.543594 L 649.274294,855.000297 L 649.969441,855.370509 L 650.750034,855.666061 L 651.598904,855.898786 L 652.498881,856.080517 L 653.432798,856.223086 L 654.859753,856.389393 L 659.424107,856.840456 L 665.708037,857.500682 L 669.699011,858.051529 L 673.673006,858.788056 L 674.074147,858.875127 L 675.001471,859.085732" style="fill:none;stroke:#000000;stroke-linecap: round"/><path d="M 502.338762,739.123617 L 502.759699,739.214787 L 511.254121,740.852210 L 511.653028,740.912989 L 513.620791,741.179518 L 515.166456,741.346311 L 516.695630,741.472326 L 517.076349,741.497531 L 518.596936,741.573458 L 520.120275,741.610022 L 521.654918,741.607854 L 526.653762,741.355352 L 527.067242,741.319696 L 531.300329,740.853041 L 531.753881,740.793637 L 535.062221,740.318392 L 543.788528,739.196033 L 544.201401,739.232108 L 544.937196,739.384062 L 545.254005,739.504758 L 545.770169,739.847626 L 546.109449,740.341780 L 546.268639,740.991115 L 546.294136,741.364748 L 546.268666,742.187975 L 546.134483,743.546805 L 546.055076,744.484090 L 546.042937,745.405482 L 546.148831,746.275830 L 546.411676,747.066737 L 546.822717,747.776977 L 547.361211,748.412163 L 547.671771,748.703364 L 548.362549,749.236487 L 549.128920,749.708581 L 549.950141,750.125257 L 550.374837,750.314567 L 551.239436,750.658636 L 552.109920,750.960915 L 552.981899,751.224772 L 553.854888,751.453034 L 555.165215,751.734877 L 556.475105,751.952548 L 556.911357,752.012495 L 558.218134,752.159456 L 559.520678,752.264525 L 561.248006,752.355955 L 565.903485,752.495351 L 566.733862,752.529116 L 568.374041,752.628399 L 569.584274,752.741786 L 570.775640,752.899146 L 571.946513,753.110029 L 572.714906,753.285068 L 573.095265,753.383983 L 573.848007,753.606373 L 574.589712,753.863869 L 575.319900,754.159287 L 576.038559,754.493647 L 576.746654,754.864195 L 577.097080,755.062031 L 577.791370,755.480807 L 578.818440,756.160675 L 579.831536,756.892902 L 580.834332,757.666586 L 582.492749,759.018585 L 587.936917,763.371977 L 588.285894,763.614290 L 589.346633,764.307566 L 590.427549,764.952295 L 590.792101,765.157209 L 591.897787,765.744362 L 593.020441,766.293719 L 594.051521,766.762867" style="fill:none;stroke:#000000;stroke-linecap: round"/><path d="M 33.598689,855.046113 L 34.000921,855.168175 L 48.091832,859.387591 L 56.164025,861.715392 L 64.259753,863.946346 L 70.351237,865.538553 L 76.462902,867.047722 L 92.779161,871.026672 L 96.810097,872.243237 L 97.211376,872.373030 L 100.812097,873.586879 L 115.603568,878.363085 L 116.008719,878.463775 L 117.634111,878.840223 L 119.267921,879.170705 L 120.911104,879.450387 L 122.563561,879.679941 L 124.224302,879.864695 L 126.310330,880.040976 L 133.667940,880.328341 L 139.792511,880.422849 L 145.889076,880.665622 L 146.307363,880.694461 L 148.392789,880.870830 L 150.052986,881.055560 L 151.705573,881.281324 L 152.117595,881.343889 L 154.171443,881.691273 L 156.215742,882.092240 L 163.712583,883.950210 L 164.115985,884.064050 L 167.741270,885.131582 L 171.764241,886.380717 L 181.860301,889.512805 L 185.939636,890.654455 L 186.349496,890.762237 L 188.817157,891.379356 L 191.299799,891.942994 L 199.226571,893.444506 L 205.318902,894.411092 L 209.519946,895.046816 L 215.790392,896.036251 L 219.932948,896.769024 L 229.270127,898.880083 L 229.668888,898.990008 L 231.651702,899.567146 L 233.615124,900.193237 L 235.557698,900.872504 L 237.095767,901.457039 L 238.619150,902.079596 L 240.128419,902.738892 L 240.503619,902.909251 L 242.367506,903.792889 L 244.212281,904.727086 L 246.039413,905.708420 L 248.210756,906.943419 L 250.361352,908.235450 L 256.183384,912.030289 L 256.533338,912.270215 L 260.018311,914.716718 L 263.485043,917.229946 L 275.655570,926.099863 L 276.008463,926.341801 L 278.137289,927.761585 L 279.928406,928.895918 L 281.737585,929.977242 L 283.199519,930.798696 L 284.675732,931.576904 L 286.167436,932.307724 L 287.675837,932.987014 L 288.818824,933.460172 L 289.972395,933.900268 L 291.137059,934.305553 L 292.313324,934.674290 L 292.708042,934.788902 L 293.899786,935.108865 L 295.102325,935.395026 L 296.721193,935.728461 L 298.356112,936.012519 L 300.005289,936.253323 L 302.084077,936.502828 L 310.509647,937.158904 L 322.740829,938.363830 L 323.155616,938.434609 L 324.806908,938.747905 L 326.445520,939.109624 L 328.072324,939.516236 L 329.688274,939.963924 L 331.694400,940.575480 L 333.686916,941.237794 L 340.185052,943.688507 L 345.845087,946.019980 L 363.347509,953.306297 L 374.939448,958.245761 L 382.615972,961.626436 L 388.340073,964.226408 L 394.031492,966.893784 L 399.686497,969.639498 L 405.302267,972.472237 L 412.351162,976.163110 L 416.051411,978.149138 L 425.266024,983.194771 L 429.762833,985.687561" style="fill:none;stroke:#000000;stroke-linecap: round"/><path d="M 207.888358,930.974500 L 208.323956,930.938987 L 212.243990,930.658571 L 213.976091,930.588191 L 215.266488,930.571897 L 216.546989,930.594695 L 217.815383,930.663616 L 219.069459,930.785691 L 220.307055,930.967792 L 221.527534,931.211738 L 222.732061,931.513380 L 223.921905,931.868225 L 225.098335,932.271781 L 226.262621,932.719555 L 227.416031,933.207055 L 228.559835,933.729789 L 230.072157,934.473810 L 231.572666,935.261832 L 237.154985,938.432378 L 240.879995,940.525445 L 242.763035,941.504402 L 244.284680,942.236173 L 245.822069,942.914490 L 247.374628,943.541734 L 248.941395,944.121689 L 250.521407,944.658142 L 252.113702,945.154875 L 254.119879,945.725704 L 260.987901,947.333749 L 261.399491,947.417856 L 265.532937,948.219503 L 281.176555,951.458474 L 281.588421,951.567661 L 283.641789,952.142242 L 285.683515,952.764709 L 291.056804,954.661467 L 291.454309,954.817526 L 293.429068,955.627021 L 295.380845,956.485327 L 300.458625,959.015915 L 300.830728,959.219747 L 302.671674,960.268663 L 304.478300,961.367317 L 305.897325,962.282179 L 307.291702,963.229091 L 308.660237,964.208153 L 310.001740,965.219460 L 311.315016,966.263110 L 312.598875,967.339201 L 313.852122,968.447829 L 315.074225,969.588590 L 316.562336,971.055218 L 316.855273,971.353394 L 318.299749,972.865374 L 323.599431,978.830607 L 334.093884,990.047115 L 334.407939,990.329754 L 335.686445,991.439287 L 337.003410,992.512426 L 338.362575,993.545501 L 339.411706,994.289124 L 340.487156,994.990777 L 341.218987,995.426721 L 341.962878,995.831248 L 342.718974,996.199254 L 343.487421,996.525633 L 344.268363,996.805279 L 344.922348,996.997241" style="fill:none;stroke:#000000;stroke-linecap: round"/><path d="M 213.197026,871.762358 L 212.872118,871.513309 L 212.545991,871.265823 L 212.217426,871.021464 L 211.885205,870.781795 L 211.548107,870.548379 L 211.204914,870.322780 L 210.854408,870.106562 L 210.495369,869.901287 L 210.126578,869.708520 L 209.746817,869.529822 L 209.354866,869.366759 L 208.949506,869.220892 L 208.529518,869.093786 L 208.093684,868.987004 L 207.640785,868.902109 L 207.169600,868.840665 L 206.679051,868.804190 L 206.172391,868.792819 L 205.657985,868.805050 L 205.144489,868.839291 L 204.640561,868.893946 L 204.154857,868.967424 L 203.696033,869.058129 L 203.272746,869.164468 L 202.893654,869.284848 L 202.567412,869.417675 L 202.302678,869.561355 L 202.108108,869.714294 L 201.991525,869.874995 L 201.952837,870.042870 L 201.987577,870.217837 L 202.091236,870.399817 L 202.259303,870.588731 L 202.487266,870.784501 L 202.770615,870.987049 L 203.104840,871.196297 L 203.485429,871.412165 L 203.907871,871.634577 L 204.367656,871.863452 L 204.860273,872.098714 L 205.381210,872.340283 L 205.925958,872.588082 L 206.490005,872.842031 L 207.068840,873.102054 L 207.657953,873.368070 L 208.252833,873.640003 L 208.848967,873.917712 L 209.441768,874.198616 L 210.026550,874.476903 L 210.598622,874.746541 L 211.153290,875.001497 L 211.685863,875.235739 L 212.191648,875.443235 L 212.665953,875.617951 L 213.104086,875.753856 L 213.501354,875.844917 L 213.853065,875.885101 L 214.154528,875.868376 L 214.401048,875.788710 L 214.587935,875.640070 L 214.710496,875.416424 L 214.764167,875.112066 L 214.749760,874.735080 L 214.675328,874.312102 L 214.549431,873.871077 L 214.380632,873.439950 L 214.177355,873.043476 L 213.947027,872.682924 L 213.696628,872.349062 L 213.433138,872.032611 L 213.197026,871.762358 z" style="fill:none;stroke:#000000;stroke-linecap: round"/><path d="M 32.743211,864.002616 L 33.018478,864.325386 L 36.520546,868.184094 L 36.818061,868.481637 L 37.727747,869.354830 L 38.666328,870.195260 L 39.637901,870.998282 L 40.646559,871.759254 L 40.991727,872.002764 L 42.056203,872.700446 L 42.791512,873.136473 L 43.167319,873.345243 L 43.935996,873.743435 L 44.728434,874.114684 L 45.956970,874.625050 L 50.025094,876.271350 L 50.761760,876.657797 L 51.450382,877.084252 L 52.081363,877.559691 L 52.645105,878.093093 L 53.132843,878.692716 L 53.546944,879.357216 L 53.897734,880.078378 L 54.195713,880.847841 L 54.328180,881.248071 L 54.566630,882.074303 L 54.877784,883.362400 L 54.974346,883.800585 L 55.677975,886.886778 L 56.039146,888.173111 L 56.310373,889.003970 L 56.610560,889.806796 L 56.943656,890.575867 L 57.313606,891.305461 L 57.724357,891.989857 L 58.179856,892.623332 L 58.683928,893.200316 L 59.237218,893.719198 L 59.531466,893.957658 L 60.153342,894.394387 L 60.817283,894.779891 L 61.520359,895.117003 L 61.885659,895.268298 L 62.641951,895.538136 L 63.430060,895.766666 L 64.247057,895.956724 L 65.090016,896.111142 L 65.956007,896.232755 L 67.291777,896.359864 L 68.662902,896.429101 L 70.059500,896.450031 L 70.528985,896.447926 L 72.416932,896.403544 L 75.238606,896.268049 L 79.739539,896.068598 L 80.596554,896.072006 L 81.851541,896.127919 L 82.666757,896.206470 L 83.463952,896.323966 L 84.242383,896.485489 L 85.001306,896.696118 L 85.740163,896.960240 L 86.459936,897.276506 L 87.162362,897.640737 L 87.507615,897.839528 L 88.187293,898.267834 L 88.853985,898.733607 L 89.509436,899.232649 L 90.475352,900.034402 L 91.425788,900.887389 L 91.740178,901.180653 L 93.303771,902.690368 L 98.021585,907.010682 L 98.362713,907.271630 L 99.056084,907.771408 L 99.764418,908.240962 L 100.487034,908.681217 L 101.223218,909.093173 L 101.972254,909.477829 L 103.118339,910.005815 L 104.289315,910.478002 L 105.482767,910.897766 L 106.696280,911.268481 L 107.927439,911.593523 L 108.341329,911.692304 L 109.592258,911.961699 L 110.855197,912.193295 L 111.278428,912.262677 L 112.980225,912.504459 L 114.691923,912.695044 L 116.836748,912.873468 L 119.403880,913.020047 L 119.830276,913.038601 L 122.803963,913.126423 L 125.760385,913.148951 L 129.540946,913.100700 L 135.806720,912.890328 L 150.406022,912.351450 L 154.611140,912.337777 L 161.541768,912.602805 L 161.967881,912.635962 L 163.667048,912.800994 L 164.932237,912.965082 L 166.185658,913.170458 L 167.423805,913.423186 L 168.643171,913.729327 L 169.840251,914.094942 L 170.624191,914.374720 L 171.395630,914.685421 L 172.153616,915.028652 L 172.527560,915.212343 L 173.265869,915.602486 L 173.992118,916.021098 L 175.060745,916.697447 L 176.107038,917.425131 L 177.133878,918.196519 L 178.144145,919.003982 L 181.535743,921.954135 L 181.859842,922.246096 L 185.101243,925.116802 L 186.412949,926.200624 L 187.408756,926.972503 L 188.418073,927.700771 L 189.443782,928.377798 L 190.488762,928.995953 L 191.197545,929.371583 L 191.917027,929.715394 L 192.648061,930.025128 L 193.018177,930.166509 L 193.767955,930.421419 L 194.530058,930.640523 L 195.303829,930.825902 L 196.088615,930.979640 L 196.883759,931.103821 L 198.094466,931.239230 L 199.324795,931.319853 L 200.572535,931.352723 L 200.991936,931.354283 L 201.902483,931.343459" style="fill:none;stroke:#000000;stroke-linecap: round"/><path d="M 35.214986,830.919118 L 35.608758,831.038814 L 39.951426,832.379318 L 52.422832,836.672871 L 61.361399,840.101431 L 61.779421,840.250743 L 63.867814,840.963205 L 65.534546,841.483332 L 67.195512,841.948850 L 68.436216,842.256427 L 69.671653,842.523923 L 70.900956,842.747323 L 72.123258,842.922614 L 73.337691,843.045783 L 74.543389,843.112817 L 75.739484,843.119703 L 76.531117,843.088896 L 77.317841,843.028383 L 78.099397,842.936976 L 78.875530,842.813485 L 79.645983,842.656727 L 80.410859,842.466642 L 81.171071,842.245716 L 82.304881,841.862695 L 83.433950,841.426214 L 84.561730,840.945835 L 86.069401,840.253567 L 95.631203,836.093900 L 96.063999,835.962020 L 97.375679,835.604878 L 98.700618,835.311603 L 99.587036,835.155453 L 100.472985,835.033516 L 101.355921,834.948122 L 102.233300,834.901601 L 103.102576,834.896286 L 103.961206,834.934506 L 104.806644,835.018593 L 105.223621,835.078565 L 106.044501,835.235821 L 106.845829,835.444771 L 107.625059,835.707745 L 108.379647,836.027075 L 109.107048,836.405090 L 109.804916,836.843776 L 110.474223,837.339301 L 111.118711,837.882985 L 111.742201,838.466003 L 119.133675,845.399270 L 119.478632,845.555453 L 120.184548,845.825231 L 120.910892,846.040915 L 121.656579,846.205736 L 122.420519,846.322926 L 123.201627,846.395716 L 123.998814,846.427337 L 124.810993,846.421020 L 125.637077,846.379995 L 126.899894,846.260451 L 128.187881,846.080989 L 129.497366,845.852516 L 131.270444,845.490492 L 134.876890,844.666600 L 138.053274,843.970779 L 139.858105,843.639953 L 141.200177,843.443497 L 142.529065,843.301072 L 143.844500,843.213430 L 145.146749,843.179730 L 146.436077,843.199130 L 146.863028,843.217252 L 148.135543,843.306144 L 149.395757,843.446173 L 150.643937,843.636498 L 151.880349,843.876278 L 153.105259,844.164670 L 154.318933,844.500834 L 155.521636,844.883928 L 156.713635,845.313110 L 157.895196,845.787540 L 159.066584,846.306375 L 160.228066,846.868775 L 161.379907,847.473897 L 162.522505,848.119919 L 164.409871,849.263888 L 170.012819,852.740130 L 173.772841,854.594308 L 177.621722,855.610920 L 178.013777,855.651106 L 178.802543,855.692945 L 179.597440,855.684768 L 180.398051,855.631022 L 181.203941,855.536282 L 182.014676,855.405125 L 183.238914,855.150115 L 184.471612,854.838905 L 186.125840,854.363229 L 191.128436,852.867516 L 192.381139,852.554930 L 193.633400,852.281964 L 194.885303,852.049372 L 196.136930,851.857909 L 197.388366,851.708327 L 198.639695,851.601381 L 199.890999,851.537825 L 201.142363,851.518412 L 202.393869,851.543896 L 203.645582,851.614840 L 204.897284,851.729178 L 206.148552,851.882930 L 207.398961,852.072073 L 209.064097,852.372361 L 210.725935,852.718877 L 212.797055,853.202500 L 216.911195,854.267226 L 222.982536,855.828619 L 226.946156,856.633184 L 230.901945,857.139735 L 231.301275,857.172262 L 232.506438,857.248837 L 233.724666,857.292977 L 234.958928,857.303492 L 236.212194,857.279194 L 237.487431,857.218896 L 238.787608,857.121409 L 240.115694,856.985545 L 241.474657,856.810115 L 243.816274,856.426581 L 248.701845,855.464904 L 253.032518,855.343280 L 255.665309,857.562303 L 256.481870,861.924156 L 256.650069,866.291425 L 256.862951,872.357424 L 257.521067,876.431803 L 259.023627,880.805366 L 261.511243,884.971103 L 261.804502,885.307829 L 262.411230,885.912058 L 263.042822,886.410823 L 263.696778,886.788328 L 264.370597,887.028774 L 265.061782,887.116364 L 265.767873,887.040703 L 266.486624,886.818383 L 267.215851,886.474407 L 267.953374,886.033782 L 268.697008,885.521513 L 269.819146,884.673478 L 271.689019,883.256120 L 272.430479,882.760723 L 273.164956,882.343719 L 273.890269,882.030113 L 274.604235,881.844911 L 275.305315,881.806603 L 275.994540,881.907668 L 276.673580,882.134100 L 277.344107,882.471892 L 278.007790,882.907037 L 278.666302,883.425529 L 279.321313,884.013361 L 280.954487,885.694382 L 284.290947,889.218501 L 287.853418,891.836555 L 291.637830,893.525342 L 295.595899,894.618606 L 299.679907,895.374214 L 303.842875,895.950535 L 305.939305,896.218847 L 310.132726,896.810537 L 314.287790,897.602005 L 318.357571,898.744877 L 322.290917,900.363846 L 326.015196,902.446687 L 329.450969,904.937772 L 329.775619,905.207192 L 330.726701,906.036050 L 331.641807,906.894639 L 332.518793,907.781455 L 333.357325,908.694165 L 334.434521,909.938378 L 336.856619,912.745374 L 337.715534,913.650604 L 338.624617,914.525266 L 339.265771,915.086843 L 339.940063,915.628011 L 340.651830,916.146042 L 341.405408,916.638206 L 342.205130,917.101777 L 343.049601,917.536739 L 344.358951,918.153600 L 346.071169,918.959705 L 346.864378,919.377188 L 347.586909,919.817001 L 348.217204,920.288676 L 348.733702,920.801746 L 349.114847,921.365743 L 349.340005,921.989888 L 349.411541,922.675666 L 349.355802,923.416499 L 349.200256,924.205429 L 348.972369,925.035500 L 348.554987,926.342524 L 348.129347,927.702981 L 347.886779,928.628040 L 347.708291,929.559378 L 347.606705,930.488813 L 347.584298,931.407285 L 347.643074,932.305709 L 347.785037,933.175001 L 348.012192,934.006078 L 348.326545,934.789856 L 348.730100,935.517250 L 349.224862,936.179177 L 349.812768,936.766578 L 350.489664,937.272587 L 351.240595,937.694235 L 352.049492,938.028952 L 352.900288,938.274166 L 353.336377,938.362406 L 354.219896,938.468548 L 355.105145,938.478762 L 355.976058,938.390478 L 356.816632,938.201183 L 357.617913,937.914568 L 358.384145,937.545939 L 359.121024,937.111879 L 359.834244,936.628974 L 360.872176,935.849308 L 362.903688,934.296099 L 363.588601,933.840985 L 364.286879,933.444823 L 365.004117,933.123900 L 365.742700,932.884917 L 366.501184,932.723144 L 367.277901,932.633182 L 368.071183,932.609635 L 368.879361,932.647102 L 369.700768,932.740188 L 370.533735,932.883492 L 371.376595,933.071617 L 372.227679,933.299165 L 373.516076,933.702596 L 374.813593,934.164364 L 376.548075,934.839310 L 384.981172,938.185639 L 391.004627,940.423733 L 408.264369,946.754353 L 420.782586,952.112250 L 421.177782,952.300015 L 431.248559,956.989501 L 435.344482,958.547055 L 435.755093,958.682885 L 436.987570,959.064428 L 438.220660,959.403892 L 439.453910,959.697220 L 440.686868,959.940349 L 441.919081,960.129222 L 443.150097,960.259779 L 444.379464,960.327959 L 445.197902,960.336754 L 446.015273,960.314819 L 446.831441,960.260951 L 447.239032,960.221666 L 448.053146,960.117644 L 448.865723,959.978682 L 449.676629,959.803576 L 450.485729,959.591126 L 451.292907,959.341507 L 452.499923,958.907324 L 453.702263,958.417161 L 455.297770,957.707108 L 455.695239,957.523873 L 459.636957,955.745843 L 460.807120,955.291318 L 461.583879,955.024909 L 462.357891,954.793901 L 463.129098,954.603537 L 463.897442,954.459058 L 464.280522,954.405664 L 465.044462,954.339589 L 465.805424,954.328039 L 466.563398,954.368908 L 467.318377,954.460001 L 468.070351,954.599123 L 468.819314,954.784082 L 469.565257,955.012684 L 470.308171,955.282734 L 471.048049,955.592038 L 471.784883,955.938402 L 472.152156,956.124797 L 472.884408,956.522638 L 473.977038,957.177920 L 475.062744,957.896842 L 476.141501,958.672000 L 477.213281,959.495989 L 478.631419,960.657804 L 480.037039,961.875716 L 482.121857,963.769370 L 485.195523,966.642885 L 494.226913,974.594936 L 494.551753,974.862078 L 497.149180,976.949213 L 499.753678,978.954902 L 508.418307,985.032224 L 508.762327,985.256140 L 511.903934,987.249331 L 515.832206,989.652741 L 517.638496,990.742701 L 524.889415,995.171525 L 528.469845,997.476684 L 531.974172,999.879944 L 535.367832,1002.409508 L 538.616262,1005.093580 L 541.684899,1007.960362 L 544.539181,1011.038056 L 544.811488,1011.358512 L 545.875705,1012.664271 L 546.903350,1014.004843 L 548.145203,1015.720803 L 549.587614,1017.824197 L 551.926011,1021.386932 L 554.260210,1024.943359 L 556.680010,1028.403876 L 559.275212,1031.678882 L 559.547837,1031.992729 L 560.382521,1032.916870 L 561.244306,1033.813024 L 562.135618,1034.678774 L 563.058879,1035.511699 L 564.016500,1036.309397 L 565.008236,1037.072162 L 565.302526,1037.288456" style="fill:none;stroke:#000000;stroke-linecap: round"/><path d="M 344.328841,707.356655 L 344.743709,707.300909 L 345.158587,707.245020 L 360.344552,704.919049 L 365.163380,704.010160 L 370.797392,703.061277 L 371.215434,703.004166 L 375.638226,702.580269 L 376.057262,702.560394 L 376.476388,702.544579 L 377.734321,702.522829 L 378.993097,702.542432 L 380.252738,702.606998 L 381.513264,702.720141 L 382.774696,702.885470 L 384.034725,703.107493 L 384.868473,703.290897 L 385.692498,703.505669 L 386.502766,703.754427 L 387.295243,704.039791 L 387.683550,704.197019 L 388.441778,704.542204 L 389.172132,704.930543 L 389.871931,705.363380 L 390.542708,705.838094 L 391.186815,706.351293 L 391.806601,706.899585 L 392.404418,707.479577 L 392.982616,708.087878 L 393.818271,709.045989 L 394.623005,710.048715 L 395.375987,711.045607" style="fill:none;stroke:#000000;stroke-linecap: round"/><path d="M 44.359917,701.236820 L 44.722751,701.499558 L 47.995750,703.820226 L 48.360584,704.071229 L 50.556537,705.536491 L 52.397605,706.692393 L 53.879371,707.564836 L 55.370325,708.383384 L 56.495273,708.957806 L 57.626539,709.495167 L 58.764616,709.992576 L 59.909997,710.447143 L 60.293499,710.588645 L 61.449384,710.981592 L 62.613723,711.324952 L 63.787009,711.615833 L 64.969734,711.851345 L 66.162391,712.028597 L 67.365467,712.144731 L 68.578981,712.199850 L 69.802111,712.199327 L 71.033953,712.149076 L 72.273598,712.055011 L 73.520143,711.923047 L 75.191366,711.698364 L 77.292105,711.358907 L 81.935372,710.512222 L 86.442192,709.779477 L 86.863705,709.722483 L 88.968705,709.468448 L 95.403104,708.992204 L 95.822109,708.976018 L 98.335299,708.914520 L 100.847993,708.911450 L 103.361499,708.963158 L 108.814957,709.245616 L 113.306908,709.630356 L 117.812900,710.118355 L 119.926060,710.368020 L 130.432816,711.591404 L 140.017479,712.252013 L 140.421135,712.261253 L 142.833473,712.281718 L 148.587543,712.136717 L 152.940925,711.916203 L 157.146171,711.678878 L 163.804690,711.372302 L 168.532099,711.289362 L 169.009658,711.296124 L 170.433693,711.345092 L 171.834057,711.446473 L 172.747684,711.549143 L 173.640593,711.684052 L 174.508706,711.854778 L 175.347943,712.064900 L 176.154226,712.317995 L 176.923476,712.617641 L 177.651613,712.967416 L 178.334560,713.370898 L 178.968237,713.831664 L 179.548565,714.353292 L 180.071465,714.939361 L 180.532923,715.593391 L 180.938621,716.310101 L 181.499685,717.450656 L 182.086736,718.594090 L 182.298815,718.965925 L 182.747944,719.694335 L 183.229389,720.402165 L 183.741975,721.089137 L 184.284530,721.754973 L 184.855878,722.399398 L 185.151982,722.713493 L 185.764318,723.325278 L 186.402512,723.914956 L 187.065389,724.482250 L 187.751776,725.026883 L 188.460497,725.548577 L 189.190379,726.047054 L 190.322310,726.750631 L 191.495246,727.400410 L 192.705225,727.995454 L 193.948285,728.534826 L 195.220460,729.017590 L 196.517790,729.442808 L 197.836309,729.809546 L 199.172056,730.116865 L 200.521066,730.363829 L 201.879378,730.549501 L 203.243027,730.672946 L 204.608050,730.733225 L 205.970484,730.729403 L 207.326367,730.660543 L 208.671735,730.525708 L 210.002755,730.324374 L 211.317817,730.063019 L 211.752665,729.964686 L 213.046850,729.642533 L 214.748681,729.166942 L 218.889000,727.931577 L 220.501327,727.496754 L 221.694820,727.220465 L 222.875152,727.000793 L 223.654878,726.891979 L 224.428981,726.817600 L 224.813953,726.794482 L 225.579791,726.778707 L 226.340234,726.806593 L 227.095462,726.879566 L 227.845781,726.995827 L 228.591507,727.153323 L 229.332957,727.350001 L 230.070447,727.583809 L 230.804292,727.852695 L 231.534809,728.154606 L 232.262315,728.487491 L 232.625037,728.664907 L 233.709555,729.237970 L 234.789431,729.866870 L 235.865731,730.544679 L 237.297080,731.512534 L 238.726500,732.538606 L 251.905307,741.712074 L 252.288114,741.911965 L 253.442518,742.488065 L 254.605667,743.029693 L 256.169616,743.700210 L 257.747869,744.314170 L 259.339718,744.874273 L 260.944452,745.383219 L 262.561362,745.843708 L 264.189741,746.258441 L 264.598545,746.355291 L 266.240261,746.716625 L 267.891849,747.038279 L 273.456878,747.858262 L 273.877809,747.906016 L 276.411705,748.158178 L 282.510054,748.565769 L 287.075566,748.749070 L 296.216886,748.929417 L 296.644382,748.929109 L 300.056839,748.886359 L 305.280449,748.650733 L 305.701600,748.621033 L 307.800768,748.445662 L 309.887920,748.222482 L 311.961636,747.947360 L 314.020502,747.616164 L 314.430369,747.542833 L 316.063100,747.224761 L 317.684514,746.865513 L 319.293883,746.462971 L 320.890483,746.015021 L 322.473594,745.519562 L 322.867212,745.388132 L 324.433436,744.833568 L 325.987306,744.235782 L 330.962884,742.042942 L 331.342011,741.860818 L 333.607758,740.736534 L 340.916554,736.835796" style="fill:none;stroke:#000000;stroke-linecap: round"/><path d="M 45.539530,680.225340 L 45.902546,680.453686 L 52.179849,684.199333 L 52.550043,684.401956 L 54.037621,685.188064 L 55.537382,685.930519 L 55.914428,686.108587 L 57.431842,686.787782 L 58.580350,687.259739 L 59.738622,687.696709 L 60.907385,688.096083 L 62.087331,688.455378 L 63.278470,688.774439 L 64.480213,689.055155 L 65.691951,689.299487 L 66.913076,689.509394 L 68.554790,689.739108 L 70.210665,689.915754 L 71.879256,690.043975 L 73.559121,690.128419 L 73.980679,690.143235 L 76.096897,690.183165 L 77.372556,690.182421 L 77.798628,690.178491 L 80.362438,690.121336 L 93.169191,689.458334 L 94.445896,689.403835 L 97.412955,689.320804 L 99.521144,689.311067 L 104.637202,689.528298 L 105.052176,689.564324 L 106.707135,689.740539 L 108.353899,689.971889 L 108.764263,690.038929 L 109.992112,690.263069 L 111.622233,690.612131 L 115.766714,691.711619 L 116.169867,691.831085 L 118.987241,692.704940 L 130.420517,696.107204 L 130.828790,696.199868 L 132.467063,696.537677 L 134.113438,696.823801 L 134.526227,696.887650 L 136.181883,697.113919 L 137.844276,697.296161 L 138.260856,697.335245 L 140.349165,697.494478 L 145.526536,697.664372 L 145.948444,697.666457 L 146.792847,697.666175 L 153.211102,697.513188 L 160.907873,697.167830 L 176.221724,696.802025 L 176.641335,696.807332 L 179.574976,696.878417 L 187.601996,697.439809 L 188.017652,697.486074 L 190.093433,697.746036 L 195.125959,698.564764 L 202.634084,699.959663 L 203.048403,700.031502 L 205.538197,700.432311 L 207.619348,700.714674 L 209.289424,700.896890 L 210.964864,701.032708 L 212.645694,701.120837 L 217.839259,701.219734 L 225.457998,701.533334 L 225.873594,701.576728 L 227.116735,701.732227 L 228.353846,701.929874 L 229.584245,702.172102 L 230.807290,702.457501 L 232.022343,702.784400 L 233.228766,703.151131 L 234.425919,703.556023 L 235.613165,703.997408 L 236.789864,704.473615 L 237.955378,704.982976 L 239.490895,705.710809 L 241.003878,706.490656 L 242.492814,707.318559 L 243.956190,708.190560 L 245.393505,709.101931 L 249.785993,712.124426 L 259.324372,718.404392 L 259.690258,718.600651 L 260.799614,719.166039 L 261.928208,719.693379 L 263.077882,720.179255 L 264.248148,720.623062 L 265.437508,721.025413 L 266.644459,721.386926 L 267.867497,721.708220 L 269.105121,721.989912 L 270.355826,722.232622 L 271.618111,722.436968 L 272.890472,722.603567 L 274.171407,722.733039 L 275.459413,722.826001 L 276.752986,722.883072 L 278.050624,722.904871 L 279.350824,722.892015 L 281.085812,722.822035 L 282.819120,722.693012 L 284.547187,722.506412 L 286.266450,722.263701 L 287.973346,721.966343 L 289.664313,721.615805 L 291.335789,721.213552 L 292.984211,720.761051 L 293.392297,720.640246 L 295.008162,720.128049 L 296.601071,719.575648 L 296.996276,719.432254 L 299.347903,718.537560 L 302.015844,717.467299" style="fill:none;stroke:#000000;stroke-linecap: round"/><path d="M 47.124244,659.861981 L 47.432153,660.145800 L 58.557591,669.731448 L 58.893285,669.987724 L 60.593775,671.247278 L 62.334010,672.466150 L 62.687071,672.703706 L 64.116349,673.626363 L 65.206459,674.283595 L 66.312408,674.904802 L 67.434448,675.484377 L 68.572833,676.016714 L 69.727815,676.496205 L 70.899649,676.917245 L 72.088335,677.275879 L 73.292694,677.575926 L 74.511200,677.823484 L 75.742328,678.024653 L 76.984552,678.185533 L 78.655472,678.347910 L 80.339788,678.463963 L 84.585448,678.646310 L 88.835709,678.855406 L 93.036676,679.306186 L 93.453065,679.368316 L 95.112805,679.643438 L 97.176031,680.039526 L 99.638721,680.574500 L 103.723492,681.553528 L 109.846814,683.028847 L 113.956714,683.875043 L 121.416879,685.035723 L 121.833860,685.088365 L 125.175832,685.470503 L 136.500921,686.356132 L 141.540225,686.615271 L 145.739691,686.793024 L 170.904305,687.832443 L 176.758388,688.240593 L 178.849584,688.406795 L 197.696101,689.880451 L 210.294826,690.615635 L 214.465428,691.054555 L 214.880931,691.109191 L 216.953384,691.417434 L 218.604880,691.708924 L 220.662164,692.122385 L 226.799950,693.555638 L 228.844864,694.052416 L 232.942101,694.990731 L 237.062315,695.762975 L 241.217602,696.285885 L 241.634875,696.326221 L 244.562242,696.567674 L 248.756455,696.849074 L 252.952122,697.162745 L 257.135124,697.624753 L 261.299869,698.267572 L 261.715490,698.339466 L 265.864953,699.108352 L 281.584159,701.844809 L 281.998565,701.891272 L 284.072065,702.088954 L 285.732905,702.201468 L 287.395764,702.270805 L 289.060558,702.299327 L 289.893645,702.299213 L 291.978252,702.259987 L 294.065377,702.169782 L 301.593997,701.513124 L 302.013037,701.464925 L 306.206248,700.939871 L 311.661693,700.196067 L 326.771517,698.409766 L 331.798848,697.911727 L 344.322795,696.611999 L 350.550230,695.824480 L 356.744765,694.869563 L 361.677346,693.949325 L 366.589005,692.892666 L 371.483063,691.721204 L 376.362864,690.456750 L 386.093070,687.736114 L 389.533902,686.737071" style="fill:none;stroke:#000000;stroke-linecap: round"/><path d="M 48.263559,649.613663 L 48.616942,649.836755 L 66.508619,661.002749 L 66.879075,661.205281 L 68.372652,661.983004 L 69.506470,662.527379 L 70.653369,663.033155 L 71.814600,663.495616 L 72.991417,663.910044 L 73.387369,664.036697 L 74.586644,664.380681 L 75.801545,664.675598 L 77.029512,664.929911 L 77.441294,665.007127 L 79.098187,665.286610 L 89.414990,667.083941 L 89.819920,667.192404 L 91.430364,667.659182 L 93.027583,668.172846 L 93.425074,668.307681 L 95.403332,669.014334 L 101.054857,671.240320 L 112.687231,675.392790 L 113.091268,675.502237 L 115.120434,676.016079 L 120.711643,677.163337 L 121.125650,677.234839 L 123.617515,677.632420 L 133.012032,678.755455 L 141.263339,679.510138 L 149.637525,680.307962 L 157.981022,681.182618 L 166.320728,682.140517 L 176.770711,683.333730 L 177.189234,683.372201 L 180.119557,683.602709 L 186.347807,683.792299 L 186.766601,683.787737 L 188.860831,683.735999 L 194.567434,683.413751 L 202.812952,682.797648 L 203.234083,682.770036 L 207.023338,682.567108 L 209.545853,682.492620 L 211.643632,682.479325 L 213.735972,682.518827 L 215.404975,682.593770 L 217.068922,682.711310 L 218.728047,682.870300 L 223.287181,683.483024 L 223.699618,683.548678 L 226.998025,684.115640 L 231.380490,684.931776 L 243.706117,686.841101 L 244.131982,686.882457 L 246.694463,687.092961 L 252.103690,687.338202 L 252.532767,687.346964 L 255.532630,687.367635 L 264.600655,687.039743 L 265.017255,687.011902 L 272.601871,686.332167 L 272.998622,686.288118 L 277.286479,685.763978 L 283.076640,684.955169 L 293.504377,683.473493 L 300.807163,682.570708 L 305.697982,681.883717 L 309.272846,680.902163 L 309.509063,680.779529 L 309.898842,680.518112 L 310.171620,680.234028 L 310.328627,679.927571 L 310.374593,679.599655 L 310.314252,679.251196 L 310.245695,679.069548 L 310.034767,678.691988 L 309.729367,678.296171 L 309.334227,677.883013 L 308.854082,677.453427 L 308.583612,677.232759 L 307.984835,676.780248 L 307.312887,676.313596 L 306.178125,675.589107 L 304.905356,674.837948 L 303.021268,673.800253 L 300.418777,672.455328 L 297.189813,670.867034" style="fill:none;stroke:#000000;stroke-linecap: round"/><path d="M 49.655984,637.088576 L 49.962977,637.375661 L 59.508018,645.828967 L 59.833885,646.093948 L 61.810786,647.658429 L 62.144084,647.914689 L 64.167045,649.423645 L 66.229131,650.881173 L 67.976828,652.054106 L 69.750643,653.187111 L 71.550101,654.278272 L 73.374721,655.325673 L 75.224027,656.327401 L 77.097541,657.281538 L 78.994746,658.186287 L 80.914438,659.041874 L 85.035510,660.696404 L 85.429861,660.842810 L 87.809365,661.685993 L 88.208047,661.820797 L 90.611425,662.596710 L 97.650822,664.550199 L 98.059083,664.650705 L 104.077557,665.988742 L 104.489234,666.070684 L 107.790568,666.685017 L 113.818985,667.617647 L 114.235875,667.673440 L 117.579086,668.081691 L 121.777460,668.502951 L 128.082139,669.099997 L 132.255699,669.627360 L 136.377998,670.380972 L 136.786497,670.472828 L 138.412528,670.875508 L 139.623023,671.217482 L 140.024676,671.339643 L 141.623366,671.863098 L 146.007761,673.344037 L 147.215810,673.687757 L 148.435304,673.977281 L 149.667348,674.207537 L 150.910080,674.387167 L 152.161415,674.525825 L 159.215102,674.995102 L 165.768820,675.607358 L 178.930469,676.443982 L 179.354191,676.435062 L 180.623767,676.384538 L 181.889033,676.294409 L 182.309402,676.254684 L 183.565074,676.103826 L 184.810667,675.901480 L 186.043708,675.642555 L 187.261725,675.321958 L 188.064183,675.071499 L 189.253831,674.644311 L 190.430528,674.171951 L 194.318192,672.520303 L 195.491755,672.076412 L 196.280237,671.811682 L 197.075192,671.578618 L 197.877862,671.382525 L 198.282152,671.298729 L 199.096242,671.158359 L 199.917129,671.052540 L 200.744156,670.979173 L 201.159766,670.954003 L 202.413996,670.921404 L 203.677599,670.947661 L 204.948357,671.025695 L 206.224047,671.148424 L 207.502452,671.308767 L 207.928806,671.369350 L 209.633126,671.640364 L 217.648316,673.203014 L 233.830143,675.867079 L 234.246781,675.899539 L 235.918550,676.002153 L 237.599738,676.058094 L 239.291777,676.063207 L 240.995762,676.013290 L 242.279247,675.936794 L 243.563439,675.824223 L 243.991025,675.778277 L 245.270447,675.613954 L 246.542008,675.408078 L 247.802035,675.158302 L 249.046855,674.862279 L 250.272796,674.517662 L 250.676613,674.391585 L 251.871670,673.978523 L 253.039279,673.511390 L 254.175767,672.987837 L 254.914324,672.606299 L 255.636328,672.197948 L 256.340955,671.762376 L 257.028848,671.300818 L 258.031857,670.563702 L 259.003758,669.778274 L 259.948476,668.950627 L 260.869936,668.086858 L 263.395205,665.489753" style="fill:none;stroke:#000000;stroke-linecap: round"/><path d="M 53.948355,627.874548 L 54.238250,628.173645 L 60.074373,634.137153 L 64.577423,638.549088 L 70.382474,643.821587 L 70.709159,644.101412 L 74.411803,647.121069 L 74.752988,647.384291 L 76.477038,648.672605 L 76.825479,648.924283 L 78.231391,649.909020 L 79.656784,650.855675 L 81.101729,651.760354 L 82.566296,652.619163 L 84.050555,653.428209 L 85.554575,654.183597 L 86.695600,654.712583 L 87.847811,655.207554 L 89.011235,655.666868 L 90.185904,656.088880 L 91.371845,656.471950 L 92.569089,656.814434 L 93.777665,657.114689 L 94.997363,657.372414 L 96.227017,657.592642 L 97.879616,657.838942 L 99.961680,658.091943 L 112.371065,659.845158 L 112.783558,659.937604 L 127.302559,662.844823 L 127.718877,662.876418 L 128.971237,662.940140 L 130.228890,662.955872 L 131.490790,662.931593 L 137.468405,662.603743 L 137.888530,662.585760 L 139.563664,662.546221 L 140.812904,662.561801 L 142.054476,662.628144 L 143.287703,662.751234 L 144.513427,662.927127 L 145.732679,663.150653 L 146.946491,663.416639 L 148.155895,663.719916 L 149.763359,664.173353 L 151.767971,664.801774 L 167.097618,669.359968 L 167.518166,669.430297 L 168.781266,669.615771 L 170.045373,669.761236 L 171.308974,669.864456 L 172.570552,669.923195 L 173.828592,669.935218 L 175.081580,669.898288 L 176.327999,669.810170 L 177.566336,669.668627 L 178.795447,669.472546 L 180.015850,669.225807 L 181.228526,668.933685 L 182.434455,668.601454 L 184.033560,668.105203 L 185.624737,667.559528 L 191.735696,665.218371 L 198.978464,662.701906 L 199.382250,662.582781 L 201.407381,662.015399 L 201.813590,661.907310 L 204.258437,661.293336 L 211.334549,659.799764 L 216.336801,658.911271 L 218.843481,658.492314" style="fill:none;stroke:#000000;stroke-linecap: round"/><path d="M 78.771270,633.964040 L 78.285467,634.164385 L 77.364571,634.570660 L 76.534618,634.986953 L 76.162496,635.199821 L 75.521456,635.636924 L 75.259539,635.861931 L 74.870409,636.326784 L 74.750196,636.567401 L 74.673493,637.066528 L 74.715524,637.324393 L 74.945978,637.853325 L 75.128517,638.123011 L 75.613511,638.669366 L 75.910083,638.944654 L 76.596669,639.495993 L 76.980799,639.770663 L 77.816025,640.314549 L 78.261237,640.582383 L 79.192154,641.106376 L 79.671974,641.361154 L 81.133584,642.088320 L 82.567857,642.745599 L 83.935063,643.326558 L 85.240911,643.838762 L 86.493732,644.290584 L 88.096066,644.813553 L 89.638677,645.263901 L 93.913576,646.332299 L 95.788195,646.778578 L 101.612498,648.225433 L 107.664122,649.824149 L 123.479346,654.493800 L 130.664777,656.415795 L 131.078006,656.444874 L 131.908243,656.455818 L 132.741511,656.405535 L 133.158421,656.358419 L 133.991076,656.222212 L 134.406132,656.133910 L 135.231981,655.918879 L 135.642087,655.792939 L 136.454941,655.506183 L 136.857001,655.346156 L 137.650668,654.994774 L 138.041587,654.804209 L 138.809875,654.395302 L 139.186557,654.177749 L 139.923276,653.718416 L 140.282626,653.477425 L 140.981584,652.974766 L 141.320642,652.713851 L 141.978555,652.174212 L 142.297946,651.895961 L 142.918938,651.323776 L 143.221075,651.030315 L 144.097263,650.123288 L 144.933743,649.181258 L 146.856042,646.771448" style="fill:none;stroke:#000000;stroke-linecap: round"/><path d="M 160.082856,661.258497 L 160.475175,661.385137 L 162.054427,661.916647 L 163.654705,662.499641 L 165.282763,663.149545 L 166.942340,663.871619 L 170.728907,665.510365 L 171.984440,665.972914 L 172.814068,666.236633 L 173.635562,666.456077 L 174.447021,666.623907 L 175.246544,666.732790 L 176.032229,666.775388 L 176.419288,666.769538 L 177.180651,666.698953 L 177.923424,666.543745 L 178.287246,666.432124 L 178.999191,666.140476 L 179.690587,665.764916 L 180.028739,665.548515 L 180.690272,665.064164 L 181.332534,664.518671 L 181.646599,664.225843 L 182.260916,663.605713 L 182.857242,662.947210 L 183.148818,662.606415 L 183.997967,661.551516 L 184.810088,660.471754 L 186.633059,658.036313 L 187.178258,657.408283 L 187.753604,656.829457 L 188.369638,656.310234 L 188.696092,656.076095 L 189.386160,655.658158 L 190.120399,655.300056 L 190.502057,655.140698 L 191.290395,654.855878 L 192.106693,654.608934 L 192.523301,654.496920 L 192.745347,654.440291" style="fill:none;stroke:#000000;stroke-linecap: round"/><path d="M 178.646072,680.583496 L 179.067359,680.607338 L 179.908134,680.642077 L 181.164291,680.659380 L 182.413627,680.631009 L 183.655224,680.552564 L 184.888168,680.419647 L 186.111540,680.227859 L 186.921352,680.065124 L 187.726231,679.872965 L 188.525923,679.650170 L 188.923884,679.527636 L 190.111777,679.123730 L 191.686742,678.527545 L 195.235761,677.171463 L 196.433491,676.784524 L 197.239248,676.561561 L 198.051924,676.372554 L 198.871327,676.217061 L 199.696803,676.092410 L 200.944970,675.957399 L 202.203116,675.876702 L 203.469030,675.841275 L 204.740501,675.842070 L 209.198602,676.002386 L 209.622889,676.023896 L 213.430357,676.263560 L 219.648350,676.896638 L 220.064598,676.952561 L 222.139211,677.261335 L 226.477944,678.090304 L 226.885992,678.182581 L 228.512419,678.577476 L 233.161935,679.937827 L 233.563122,680.062706 L 235.979535,680.782487 L 237.198534,681.104375 L 238.428580,681.385696 L 239.671968,681.616211 L 240.089209,681.681149 L 241.347714,681.840409 L 242.614058,681.946564 L 243.885241,681.999909 L 245.158261,682.000738 L 246.430118,681.949343 L 247.697811,681.846020 L 248.958338,681.691061 L 250.208699,681.484761 L 250.622708,681.404636 L 251.854851,681.130342 L 253.071010,680.806460 L 254.272067,680.436784 L 255.459286,680.025452 L 256.633929,679.576600 L 257.022900,679.419360 L 258.567150,678.756372 L 260.095029,678.046294 L 260.474792,677.862567 L 262.362698,676.914336 L 266.102689,674.931209 L 271.694080,671.968985 L 279.339973,668.026829" style="fill:none;stroke:#000000;stroke-linecap: round"/><path d="M 179.850985,690.978047 L 180.269609,691.009884 L 188.645346,691.679408 L 205.410612,693.127806 L 205.826891,693.181604 L 207.902633,693.482697 L 209.555458,693.767418 L 211.200245,694.097246 L 212.836647,694.473782 L 213.244572,694.574394 L 215.278247,695.109584 L 219.324748,696.286762 L 225.384017,698.067034 L 229.448928,699.067175 L 233.558874,699.769939 L 233.972679,699.822651 L 235.632496,700.007186 L 237.716747,700.187853 L 245.579279,700.622035 L 253.020463,701.264741 L 253.436718,701.330799 L 254.676771,701.560877 L 255.901234,701.845194 L 256.707281,702.068925 L 257.503999,702.322842 L 258.290460,702.609274 L 259.066636,702.927875 L 260.213675,703.458990 L 261.342993,704.043858 L 262.457910,704.671109 L 266.572852,707.210212 L 268.761219,708.533607 L 269.865762,709.149364 L 270.981637,709.719336 L 272.112159,710.232152 L 272.875618,710.536663 L 273.260649,710.676445 L 274.037929,710.928958 L 274.825652,711.142594 L 275.624686,711.314431 L 276.434687,711.446227 L 276.843467,711.498529 L 277.667915,711.578805 L 278.919787,711.647002 L 280.186670,711.666294 L 280.611672,711.664533 L 282.750942,711.620078 L 288.738454,711.412710 L 289.989405,711.274012 L 290.811405,711.140528 L 291.622154,710.967503 L 292.420215,710.749172 L 293.204181,710.479874 L 293.974421,710.160625 L 294.734135,709.803044 L 295.111123,709.613807 L 295.459136,709.434129" style="fill:none;stroke:#000000;stroke-linecap: round"/><path d="M 63.932561,630.334407 L 64.205833,630.656360 L 69.676192,636.817173 L 69.966410,637.120974 L 73.794812,640.828864 L 74.109139,641.106839 L 75.388600,642.195008 L 76.706120,643.242405 L 77.720571,643.999319 L 79.106425,644.969618 L 80.527366,645.894992 L 81.980218,646.774953 L 83.461802,647.609014 L 84.968940,648.396688 L 86.498454,649.137488 L 88.047166,649.830926 L 89.611899,650.476516 L 91.189474,651.073770 L 95.265245,652.379296 L 95.664605,652.489315 L 97.263041,652.899601 L 98.863598,653.266487 L 103.505877,654.134720 L 103.909259,654.199547 L 107.555112,654.737868 L 111.874327,655.328679 L 119.014124,656.452167 L 119.436869,656.531761 L 124.874208,657.757014 L 125.307839,657.873300 L 127.051158,658.372359 L 130.107408,659.255070 L 130.969192,659.454062 L 131.820883,659.607517 L 132.659748,659.703496 L 133.483051,659.730059 L 133.888013,659.713579 L 134.682849,659.613634 L 135.072039,659.527184 L 135.832256,659.273868 L 136.566604,658.906351 L 137.279068,658.444433 L 137.629403,658.189295 L 138.667978,657.381345 L 139.013126,657.112900 L 139.707434,656.604413 L 140.413290,656.163893 L 141.138132,655.827465 L 141.509998,655.709572 L 142.274898,655.585829 L 142.666916,655.575433 L 143.467086,655.644037 L 143.874036,655.717617 L 144.698660,655.929781 L 145.533580,656.210547 L 146.373990,656.538232 L 146.794751,656.712893 L 150.953248,658.374173 L 151.354612,658.516447 L 153.321217,659.176225" style="fill:none;stroke:#000000;stroke-linecap: round"/><path d="M 50.276687,631.505257 L 50.592041,631.781210 L 58.516563,638.649933 L 63.348608,642.713931 L 68.167318,646.591495 L 68.501492,646.849545 L 70.524137,648.371072 L 72.235379,649.597534 L 73.973216,650.778506 L 75.384665,651.685628 L 76.816618,652.555231 L 78.270622,653.383581 L 79.748210,654.166972 L 81.249779,654.903736 L 82.773874,655.595541 L 83.158226,655.761700 L 84.708190,656.400087 L 86.277018,656.997965 L 87.863082,657.557308 L 89.867423,658.205311 L 94.166047,659.403473 L 94.576970,659.505949 L 99.923463,660.680838 L 100.339817,660.761417 L 103.258491,661.289575 L 111.529648,662.534936 L 113.613653,662.817602 L 121.925204,663.976854 L 128.118483,665.021777 L 128.529734,665.100777 L 130.992309,665.605689 L 137.356695,667.173893 L 151.584908,670.309780 L 157.423711,671.432801 L 169.266958,673.363592 L 169.690212,673.398749 L 170.956929,673.481639 L 172.218403,673.527911 L 173.473766,673.534034 L 174.722151,673.496476 L 175.136578,673.473639 L 176.374307,673.372345 L 177.603032,673.219128 L 178.010457,673.155907 L 179.225826,672.927965 L 180.430166,672.639859 L 180.829012,672.529843 L 181.622625,672.288138 L 182.803544,671.875373 L 183.975254,671.414190 L 185.527566,670.747433 L 190.172927,668.697461 L 191.344858,668.244993 L 192.526069,667.843695 L 193.319936,667.611265 L 194.119425,667.409586 L 194.521226,667.319957 L 195.328804,667.162283 L 196.549696,666.977212 L 197.781355,666.849840 L 199.023034,666.775635 L 200.273989,666.750062 L 201.533474,666.768591 L 202.800742,666.826688 L 203.224765,666.854063 L 204.928127,666.999134 L 206.641791,667.193060 L 208.795666,667.487802 L 223.880845,669.230221 L 224.293904,669.217844 L 225.522923,669.142769 L 226.333183,669.058877 L 226.735400,669.006113 L 227.533698,668.877833 L 228.323399,668.717738 L 229.104005,668.524051 L 229.490745,668.414064 L 230.257103,668.167839 L 231.014389,667.888172 L 231.763119,667.576969 L 232.134437,667.410135 L 233.236976,666.867563 L 234.323750,666.266880 L 234.682806,666.054849 L 235.751271,665.386678 L 236.808037,664.675386 L 237.157994,664.429817 L 238.548051,663.411524 L 240.537931,661.860616" style="fill:none;stroke:#000000;stroke-linecap: round"/><path d="M 48.845234,644.381403 L 49.222049,644.568114 L 57.164785,648.754239 L 57.528151,648.964826 L 61.945737,651.752118 L 62.292418,651.992323 L 66.507942,655.132403 L 71.103088,658.404162 L 71.456933,658.623835 L 72.533353,659.252544 L 72.897629,659.451027 L 74.008691,660.009688 L 74.385057,660.183793 L 75.530693,660.672793 L 76.698799,661.116535 L 77.886372,661.521077 L 79.090410,661.892481 L 83.316436,663.000948 L 85.384836,663.496233 L 89.498331,664.534203 L 93.565084,665.661750 L 101.620776,668.024989 L 107.658305,669.728938 L 116.020483,671.706278 L 116.431267,671.790080 L 123.412230,673.057964 L 128.998382,673.898977 L 134.604220,674.633876 L 136.694396,674.888137 L 159.563864,677.666682 L 159.980509,677.728202 L 164.167245,678.392634 L 170.105897,679.455165 L 171.754103,679.739052" style="fill:none;stroke:#000000;stroke-linecap: round"/><path d="M 47.579135,655.770160 L 47.948868,655.966806 L 60.890508,662.918659 L 71.433794,668.315600 L 71.823636,668.465666 L 73.004787,668.882309 L 74.203130,669.249307 L 75.415814,669.575184 L 75.822692,669.676283 L 77.460378,670.052242 L 88.778899,672.893671 L 89.177477,673.025847 L 93.148767,674.397184 L 97.125305,675.760139 L 101.134687,677.021377 L 105.178289,678.158494 L 105.584502,678.264738 L 108.028771,678.871703 L 114.661366,680.242304 L 115.074634,680.315391 L 117.974401,680.791660 L 128.020535,682.015121 L 128.439773,682.053990 L 141.500291,682.921004 L 145.995147,683.112769 L 150.194859,683.273869 L 158.582254,683.643352 L 168.402336,684.382643 L 168.820782,684.426012 L 172.167793,684.813637 L 176.350711,685.361683 L 182.625389,686.158932 L 186.810164,686.562574 L 187.228762,686.593674 L 189.322160,686.717802 L 190.997429,686.774878 L 192.673256,686.789128 L 194.349705,686.755666 L 196.026840,686.669608 L 197.704613,686.529757 L 199.801908,686.302115 L 206.082014,685.621474 L 210.246141,685.538217 L 210.661131,685.558858 L 211.904642,685.651747 L 213.146179,685.787289 L 214.386014,685.960601 L 216.036955,686.241995 L 221.922866,687.548845 L 223.982512,688.049879 L 228.108881,688.987444 L 232.253129,689.688328 L 232.668909,689.738879 L 234.334556,689.907167 L 236.003977,690.030706 L 238.514395,690.159884 L 248.669029,690.817368 L 249.090700,690.872401 L 251.199350,691.183304 L 257.680874,692.357420 L 266.637332,693.772619 L 267.053664,693.812992 L 268.716055,693.939154 L 269.959554,693.992776 L 271.200010,694.007072 L 272.437221,693.978277 L 273.670989,693.902629 L 274.901115,693.776361 L 276.127398,693.595710 L 277.349842,693.359531 L 278.569196,693.076268 L 284.149168,691.472679 L 288.508774,690.353538 L 288.919381,690.274047 L 290.155071,690.072850 L 291.396661,689.928885 L 292.643617,689.836435 L 293.060360,689.815962 L 294.313550,689.782265 L 295.570725,689.785185 L 297.252131,689.835000 L 297.673261,689.854078 L 300.204880,690.005978 L 305.278018,690.340542 L 306.966849,690.405686 L 308.652231,690.422418 L 309.913161,690.394091 L 311.170769,690.323635 L 312.424463,690.204664 L 313.673669,690.031217 L 314.918086,689.803543 L 316.157619,689.526593 L 317.392179,689.205436 L 318.621677,688.845142 L 320.252977,688.312631 L 321.874905,687.731569 L 323.888814,686.955275 L 328.349546,685.127095 L 332.257803,683.569678 L 333.802086,683.010074 L 335.335184,682.504701 L 336.477538,682.168489 L 336.856883,682.065576 L 337.990872,681.786884 L 339.131043,681.555298 L 340.305349,681.371535 L 341.542763,681.236155 L 342.872256,681.149716 L 344.322745,681.112766 L 347.664061,681.068723 L 348.293168,680.987647 L 348.643133,680.842403 L 348.690085,680.626728 L 348.608837,680.494538 L 348.256703,680.186059 L 347.678131,679.824924 L 346.904818,679.418502 L 346.771281,679.352768" style="fill:none;stroke:#000000;stroke-linecap: round"/><path d="M 46.131948,669.673083 L 46.499223,669.873129 L 51.107205,672.519368 L 51.464967,672.741524 L 52.884044,673.657969 L 54.281097,674.625603 L 55.655921,675.644239 L 58.980156,678.218454 L 59.660574,678.735447 L 61.031924,679.737403 L 62.074106,680.449300 L 63.132261,681.116288 L 64.210219,681.728471 L 64.941752,682.101260 L 65.684924,682.442363 L 66.440870,682.748847 L 67.210630,683.017997 L 67.994021,683.249861 L 68.790012,683.446408 L 69.192406,683.532063 L 70.005332,683.679393 L 70.828239,683.796419 L 72.079018,683.919526 L 73.346357,683.985733 L 74.626719,684.001808 L 75.916566,683.974522 L 80.542295,683.626215 L 80.972612,683.580840 L 92.061290,682.707946 L 92.474116,682.718158 L 93.709826,682.782406 L 94.120847,682.815829 L 95.351450,682.954655 L 96.578784,683.147681 L 97.803445,683.387524 L 99.026033,683.666746 L 103.237086,684.828821 L 114.439650,687.705285 L 114.852672,687.784834 L 120.105478,688.644874 L 120.521112,688.701569 L 123.018183,689.009741 L 129.612669,689.580563 L 130.031082,689.606202 L 133.381468,689.773151 L 139.168701,689.928800 L 144.915984,689.970681 L 146.598032,689.970577 L 147.018590,689.970048 L 157.952650,689.971716 L 158.372940,689.975368 L 169.812721,690.321540 L 173.770785,690.551113" style="fill:none;stroke:#000000;stroke-linecap: round"/><path d="M 44.868404,692.179556 L 45.265866,692.303327 L 56.229222,696.110833 L 56.627967,696.272405 L 59.823365,697.533925 L 60.223672,697.679490 L 61.426091,698.086834 L 62.631041,698.438611 L 63.435928,698.634932 L 64.242210,698.795568 L 65.049995,698.916124 L 65.859390,698.992207 L 66.670474,699.021481 L 67.483245,699.007033 L 67.890259,698.984653 L 68.705536,698.912066 L 69.522467,698.805683 L 70.750932,698.591427 L 71.983041,698.323466 L 73.631440,697.905806 L 77.779695,696.756641 L 79.449612,696.338354 L 80.705926,696.069638 L 81.965168,695.848021 L 83.226281,695.668156 L 83.646871,695.616304 L 85.329208,695.442707 L 87.428920,695.282910 L 89.520160,695.157313 L 95.697621,694.688169 L 101.883434,694.045152 L 106.233764,693.794299 L 106.683843,693.787453 L 107.580026,693.801681 L 108.454511,693.873676 L 109.287619,694.028085 L 110.059674,694.289553 L 110.750998,694.682727 L 111.350402,695.219929 L 111.876795,695.869804 L 112.355752,696.591316 L 113.513450,698.439226 L 114.027786,699.088327 L 114.609315,699.625157 L 115.267859,700.034219 L 115.994734,700.330016 L 116.780147,700.528847 L 117.614305,700.647014 L 118.487415,700.700816 L 119.389685,700.706554 L 120.776340,700.660696 L 123.553017,700.566493 L 124.459852,700.566965 L 125.802005,700.598017 L 127.560169,700.691329 L 129.285846,700.837353 L 130.982711,701.028876 L 133.068874,701.321271 L 133.482025,701.385689 L 135.937183,701.804297 L 152.464186,704.446311 L 152.877416,704.479017 L 155.368418,704.644155 L 164.438043,704.938540 L 166.558323,704.975955 L 172.924432,705.122044 L 177.153962,705.309988 L 181.353978,705.638432 L 181.771740,705.682466 L 183.437905,705.883940 L 185.095479,706.130748 L 186.743422,706.429282 L 187.972436,706.690971 L 189.195010,706.988048 L 190.410708,707.323208 L 191.619092,707.699147 L 192.819722,708.118563 L 194.012162,708.584150 L 195.195974,709.098607 L 196.370719,709.664628 L 197.535959,710.284910 L 198.691260,710.962111 L 203.301312,713.978693 L 203.676876,714.211708 L 204.803254,714.865908 L 205.554667,715.254952 L 206.307178,715.597256 L 207.061394,715.885044 L 207.817917,716.110541 L 208.577353,716.265973 L 209.340304,716.343566 L 210.107374,716.335581 L 210.878791,716.239416 L 211.654041,716.062799 L 212.432518,715.814698 L 213.213616,715.504082 L 213.996729,715.139920 L 214.388853,714.940562 L 215.566581,714.286830 L 216.744758,713.573155 L 220.649011,711.149952 L 221.805514,710.526295 L 222.570835,710.165038 L 223.330907,709.857855 L 224.085122,709.613716 L 224.832875,709.441588 L 225.573561,709.350441 L 226.306575,709.349236 L 227.031590,709.443011 L 227.749034,709.626091 L 228.459465,709.890995 L 228.812226,710.051792 L 229.513185,710.425399 L 230.208526,710.862120 L 230.898806,711.354473 L 231.584584,711.894974 L 232.606028,712.779633 L 233.620478,713.730532 L 244.801128,723.943550 L 245.143009,724.206157 L 246.516720,725.226139 L 247.901493,726.196242 L 248.249596,726.430790 L 249.650370,727.336345 L 251.065681,728.188503 L 252.497074,728.985700 L 253.582102,729.546590 L 254.677697,730.075025 L 255.045357,730.243845 L 256.156054,730.727982 L 257.278839,731.178126 L 258.414363,731.593617 L 258.795815,731.724300 L 259.949337,732.092562 L 261.117120,732.424632 L 262.299807,732.719859 L 263.497444,732.978435 L 264.708928,733.202154 L 265.933035,733.392989 L 266.343663,733.449633 L 267.997927,733.643325 L 269.668811,733.787903 L 270.088788,733.816921 L 271.776358,733.906680 L 273.899648,733.965152 L 274.325695,733.970412 L 276.460378,733.968567 L 282.086750,733.794870 L 290.085595,733.369070 L 296.336547,733.065706 L 300.541334,732.942037 L 306.881309,732.626103 L 308.916313,731.699637" style="fill:none;stroke:#000000;stroke-linecap: round"/></symbol></defs><g inkscape:groupmode="layer" inkscape:label="0"/><g inkscape:groupmode="layer" inkscape:label="19_&#195;&#206;&#208;&#200;&#199;&#206;&#205;&#210;&#192;&#203;&#200;"/><g inkscape:groupmode="layer" inkscape:label="1"><use xlink:href="#%C3%97%C3%85%C3%90%C3%92%C3%85%C3%86_1_1" style="stroke-width:0.500px" transform="translate(-39.2145, -60.2483)"/></g></svg>