<svg xmlns="http://www.w3.org/2000/svg" xmlns:svg="http://www.w3.org/2000/svg" xmlns:xlink="http://www.w3.org/1999/xlink" xmlns:sodipodi="http://sodipodi.sourceforge.net/DTD/sodipodi-0.dtd" xmlns:inkscape="http://www.inkscape.org/namespaces/inkscape" viewBox="0 0 793.7007874015749 1122.5196850393702" width="793.7007874015749" height="1122.5196850393702">
    <defs><marker id="DistanceX" orient="auto" refX="0.0" refY="0.0" style="overflow:visible"><path d="M 3,-3 L -3,3 M 0,-5 L  0,5" style="stroke:#000000; stroke-width:0.5"/></marker><pattern id="Hatch" patternUnits="userSpaceOnUse" width="8" height="8" x="0" y="0"><path d="M8 4 l-4,4" stroke="#000000" stroke-width="0.25" linecap="square"/><path d="M6 2 l-4,4" stroke="#000000" stroke-width="0.25" linecap="square"/><path d="M4 0 l-4,4" stroke="#000000" stroke-width="0.25" linecap="square"/></pattern><symbol id="*MODEL_SPACE"/><symbol id="*PAPER_SPACE"/><symbol id="_ARCHTICK"><path d="M -0.944882,1123.464567 L 0.944882,1121.574803" style="fill:none;stroke:#000000;stroke-linecap: round"/></symbol><symbol id="_OPEN30"><path style="fill:none;stroke:#000000;stroke-linecap:round" d="M -1.88976 1122.01 L 0 1122.52"/><path style="fill:none;stroke:#000000;stroke-linecap:round" d="M 0 1122.52 L -1.88976 1123.03"/><path style="fill:none;stroke:#000000;stroke-linecap:round" d="M 0 1122.52 L -1.88976 1122.52"/></symbol><symbol id="_DOT"><path d="M -0.472441,1122.519685 A 0.472441,0.472441 0.0 0 0 0.472441,1122.519685 A 0.472441,0.472441 0.0 0 0 -0.472441,1122.519685 z" style="fill:none;stroke:#000000;stroke-linecap: round"/><path style="fill:none;stroke:#000000;stroke-linecap:round" d="M -0.944882 1122.52 L -1.88976 1122.52"/></symbol><symbol id="_OBLIQUE"><path style="fill:none;stroke:#000000;stroke-linecap:round" d="M -0.944882 1123.46 L 0.944882 1121.57"/></symbol><symbol id="_NONE"/><symbol id="&#215;&#197;&#208;&#210;&#197;&#198;_1_1"><path d="M 34.159361,848.402218 L 35.613341,822.321965" style="fill:none;stroke:#000000;stroke-dasharray:0.1890,1.4173,"/><path d="M 677.608091,797.948212 L 676.310518,814.301814" style="fill:none;stroke:#000000;stroke-dasharray:0.1890,1.4173,"/><path d="M 295.873505,996.544181 L 276.509615,991.491926 L 236.395118,975.573206 L 175.081521,956.740772 L 109.151988,939.301028 L 25.893762,932.543699" style="fill:none;stroke:#000000;stroke-linecap: round"/><path d="M 27.896907,928.153569 L 111.728870,935.997959 L 180.822888,954.856189 L 239.140775,973.318237 L 298.781864,996.673571" style="fill:none;stroke:#000000;stroke-dasharray:0.1890,1.4173,"/><path d="M 27.104545,923.003212 L 111.491161,931.798437 L 179.079691,951.052848 L 237.714523,969.673369 L 280.502103,986.392220 L 304.658392,996.935012" style="fill:none;stroke:#000000;stroke-linecap: round"/><path d="M 25.783847,936.741736 L 108.686617,943.474638 L 174.234042,960.853845 L 236.160476,979.766121 L 275.995724,995.659840 L 338.585246,998.444382 L 388.177703,988.356449 L 446.053491,984.880147 L 506.256794,992.737060 L 512.999498,1017.646867 L 570.662570,1039.533953 L 634.537045,1045.949857" style="fill:none;stroke:#000000;stroke-linecap: round"/><path d="M 423.421850,1043.529944 L 488.718842,1032.898810 L 596.127968,1062.691450 L 623.332301,1067.739121" style="fill:none;stroke:#000000;stroke-linecap: round"/><path d="M 677.389170,800.707322 L 650.301144,807.752502 L 597.715191,821.220748 L 544.075649,832.803664 L 479.926229,846.753115 L 426.734962,859.759399 L 386.436981,859.214145 L 318.434679,855.154992 L 255.086607,852.511265 L 198.593429,849.469312 L 144.533650,844.410099 L 98.955197,840.591983 L 36.956117,829.276465" style="fill:none;stroke:#000000;stroke-dasharray:4.7244,1.8898,"/><path d="M 676.545458,811.340805 L 652.819935,817.511449 L 600.030033,831.031931 L 546.210134,842.653793 L 482.194362,856.574181 L 427.882050,869.854583 L 386.068333,869.288820 L 317.924239,865.221203 L 254.605503,862.578700 L 197.852620,859.522763 L 143.643393,854.449564 L 97.626607,850.594729 L 35.146527,839.191423" style="fill:none;stroke:#000000;stroke-linecap: round"/><path d="M 506.647461,738.013303 L 470.639992,748.545501 L 350.188103,724.460672 L 320.967127,711.957813 L 305.169421,714.087860 L 316.333338,723.790576 L 341.185795,734.202579 L 396.771072,740.853169" style="fill:none;stroke:#000000;stroke-dasharray:0.1890,1.4173,"/><path d="M 396.771072,740.853169 L 339.522569,736.922862 L 306.842586,731.550170 L 307.110802,723.997314 L 292.073046,705.573307 L 336.153046,706.468611 L 382.315027,712.546907 L 407.146064,710.010683 L 435.060668,711.639341 L 477.943853,728.396302 L 506.648309,738.013834" style="fill:none;stroke:#000000;stroke-linecap: round"/><path d="M 600.021254,1113.070866 L 577.928130,1103.490940 L 492.460851,1068.980073 L 423.421875,1043.529946 L 287.576520,1031.584677 L 198.109999,1005.225361 L 111.150166,981.140567 L 9.448819,968.206112" style="fill:none;stroke:#000000;stroke-dasharray:0.1890,1.4173,"/><path d="M 287.577752,1031.584785 L 194.934104,1053.259403" style="fill:none;stroke:#000000;stroke-dasharray:0.1890,1.4173,"/><path d="M 600.021254,1113.070866 L 623.332301,1067.739121 L 634.537045,1045.949857 L 639.238137,1036.807894 L 665.914685,984.931442 L 674.559073,968.121163" style="fill:none;stroke:#000000;stroke-dasharray:0.1890,1.4173,"/></symbol></defs><g inkscape:groupmode="layer" inkscape:label="0"/><g inkscape:groupmode="layer" inkscape:label="10_&#195;&#208;&#192;&#205;&#200;&#214;&#219;_&#207;&#206;&#202;&#208;&#219;&#210;&#200;&#201;_&#200;_&#211;&#195;&#206;&#196;"/><g inkscape:groupmode="layer" inkscape:label="99_&#206;&#210;&#203;&#206;&#198;&#200;&#210;&#220;"/><g inkscape:groupmode="layer" inkscape:label="2"><use xlink:href="#%C3%97%C3%85%C3%90%C3%92%C3%85%C3%86_1_1" style="stroke-width:0.500px" transform="translate(-39.3053, -60.0717)"/></g></svg>