<svg xmlns="http://www.w3.org/2000/svg" xmlns:svg="http://www.w3.org/2000/svg" xmlns:xlink="http://www.w3.org/1999/xlink" xmlns:sodipodi="http://sodipodi.sourceforge.net/DTD/sodipodi-0.dtd" xmlns:inkscape="http://www.inkscape.org/namespaces/inkscape" viewBox="0 0 793.7007874015749 1122.5196850393702" width="793.7007874015749" height="1122.5196850393702">
    <defs><marker id="DistanceX" orient="auto" refX="0.0" refY="0.0" style="overflow:visible"><path d="M 3,-3 L -3,3 M 0,-5 L  0,5" style="stroke:#000000; stroke-width:0.5"/></marker><pattern id="Hatch" patternUnits="userSpaceOnUse" width="8" height="8" x="0" y="0"><path d="M8 4 l-4,4" stroke="#000000" stroke-width="0.25" linecap="square"/><path d="M6 2 l-4,4" stroke="#000000" stroke-width="0.25" linecap="square"/><path d="M4 0 l-4,4" stroke="#000000" stroke-width="0.25" linecap="square"/></pattern><symbol id="*MODEL_SPACE"/><symbol id="*PAPER_SPACE"/><symbol id="_ARCHTICK"><path d="M -0.944882,1123.464567 L 0.944882,1121.574803" style="fill:none;stroke:#000000;stroke-linecap: round"/></symbol><symbol id="_OPEN30"><path style="fill:none;stroke:#000000;stroke-linecap:round" d="M -1.88976 1122.01 L 0 1122.52"/><path style="fill:none;stroke:#000000;stroke-linecap:round" d="M 0 1122.52 L -1.88976 1123.03"/><path style="fill:none;stroke:#000000;stroke-linecap:round" d="M 0 1122.52 L -1.88976 1122.52"/></symbol><symbol id="_DOT"><path d="M -0.472441,1122.519685 A 0.472441,0.472441 0.0 0 0 0.472441,1122.519685 A 0.472441,0.472441 0.0 0 0 -0.472441,1122.519685 z" style="fill:none;stroke:#000000;stroke-linecap: round"/><path style="fill:none;stroke:#000000;stroke-linecap:round" d="M -0.944882 1122.52 L -1.88976 1122.52"/></symbol><symbol id="_OBLIQUE"><path style="fill:none;stroke:#000000;stroke-linecap:round" d="M -0.944882 1123.46 L 0.944882 1121.57"/></symbol><symbol id="_NONE"/><symbol id="&#215;&#197;&#208;&#210;&#197;&#198;_1_1"><path d="M 619.673627,1066.674090 L 615.521389,1079.226245" style="fill:none;stroke:#000000;stroke-linecap: round"/><path d="M 615.544639,1065.907968 L 608.097020,1089.625609" style="fill:none;stroke:#000000;stroke-linecap: round"/><path d="M 611.415635,1065.141845 L 597.488902,1111.972799" style="fill:none;stroke:#000000;stroke-linecap: round"/><path d="M 607.286630,1064.375723 L 600.795470,1087.483816" style="fill:none;stroke:#000000;stroke-linecap: round"/><path d="M 603.157626,1063.609600 L 591.095798,1109.200645" style="fill:none;stroke:#000000;stroke-linecap: round"/><path d="M 599.028622,1062.843479 L 593.446068,1085.321281" style="fill:none;stroke:#000000;stroke-linecap: round"/><path d="M 594.899634,1062.077357 L 584.607632,1106.387277" style="fill:none;stroke:#000000;stroke-linecap: round"/><path d="M 590.846387,1060.983246 L 585.921026,1082.902158" style="fill:none;stroke:#000000;stroke-linecap: round"/><path d="M 586.799708,1059.860794 L 577.347781,1103.239292" style="fill:none;stroke:#000000;stroke-linecap: round"/><path d="M 582.753013,1058.738343 L 578.215441,1080.233320" style="fill:none;stroke:#000000;stroke-linecap: round"/><path d="M 578.706318,1057.615891 L 569.996873,1100.241946" style="fill:none;stroke:#000000;stroke-linecap: round"/><path d="M 574.659639,1056.493440 L 570.485107,1077.623450" style="fill:none;stroke:#000000;stroke-linecap: round"/><path d="M 570.612944,1055.370987 L 562.619037,1097.262849" style="fill:none;stroke:#000000;stroke-linecap: round"/><path d="M 566.566249,1054.248536 L 562.744247,1075.009323" style="fill:none;stroke:#000000;stroke-linecap: round"/><path d="M 562.519570,1053.126084 L 555.220150,1094.275247" style="fill:none;stroke:#000000;stroke-linecap: round"/><path d="M 558.472875,1052.003633 L 554.992846,1072.390945" style="fill:none;stroke:#000000;stroke-linecap: round"/><path d="M 554.426188,1050.881181 L 547.800205,1091.279145" style="fill:none;stroke:#000000;stroke-linecap: round"/><path d="M 550.379501,1049.758729 L 547.230920,1069.768316" style="fill:none;stroke:#000000;stroke-linecap: round"/><path d="M 546.332814,1048.636278 L 540.359195,1088.274537" style="fill:none;stroke:#000000;stroke-linecap: round"/><path d="M 542.286119,1047.513826 L 539.458454,1067.141433" style="fill:none;stroke:#000000;stroke-linecap: round"/><path d="M 538.239432,1046.391374 L 532.897102,1085.261415" style="fill:none;stroke:#000000;stroke-linecap: round"/><path d="M 534.192746,1045.268923 L 531.675438,1064.510289" style="fill:none;stroke:#000000;stroke-linecap: round"/><path d="M 530.146051,1044.146471 L 525.413888,1082.239767" style="fill:none;stroke:#000000;stroke-linecap: round"/><path d="M 526.099364,1043.024019 L 523.881857,1061.874878" style="fill:none;stroke:#000000;stroke-linecap: round"/><path d="M 522.052677,1041.901568 L 517.909511,1079.209567" style="fill:none;stroke:#000000;stroke-linecap: round"/><path d="M 518.005990,1040.779116 L 516.077671,1059.235186" style="fill:none;stroke:#000000;stroke-linecap: round"/><path d="M 513.959295,1039.656664 L 510.383892,1076.170795" style="fill:none;stroke:#000000;stroke-linecap: round"/><path d="M 509.912608,1038.534213 L 508.262849,1056.591199" style="fill:none;stroke:#000000;stroke-linecap: round"/><path d="M 505.865921,1037.411761 L 502.836959,1073.123417" style="fill:none;stroke:#000000;stroke-linecap: round"/><path d="M 501.819226,1036.289309 L 500.437349,1053.942898" style="fill:none;stroke:#000000;stroke-linecap: round"/><path d="M 497.772539,1035.166858 L 495.268608,1070.067390" style="fill:none;stroke:#000000;stroke-linecap: round"/><path d="M 493.725852,1034.044406 L 492.601115,1051.290264" style="fill:none;stroke:#000000;stroke-linecap: round"/><path d="M 489.679161,1032.921955 L 487.672226,1067.113631" style="fill:none;stroke:#000000;stroke-linecap: round"/><path d="M 485.595353,1032.478869 L 484.772984,1049.110295" style="fill:none;stroke:#000000;stroke-linecap: round"/><path d="M 481.450453,1033.153708 L 480.334298,1064.408624" style="fill:none;stroke:#000000;stroke-linecap: round"/><path d="M 477.305553,1033.828548 L 476.984213,1048.441881" style="fill:none;stroke:#000000;stroke-linecap: round"/><path d="M 473.160657,1034.503387 L 472.935732,1061.681266" style="fill:none;stroke:#000000;stroke-linecap: round"/><path d="M 469.015757,1035.178226 L 469.083981,1047.732378" style="fill:none;stroke:#000000;stroke-linecap: round"/><path d="M 464.870857,1035.853065 L 465.311580,1058.870745" style="fill:none;stroke:#000000;stroke-linecap: round"/><path d="M 460.725962,1036.527904 L 461.069513,1046.980762" style="fill:none;stroke:#000000;stroke-linecap: round"/><path d="M 456.581062,1037.202744 L 457.455819,1055.974848" style="fill:none;stroke:#000000;stroke-linecap: round"/><path d="M 452.436164,1037.877583 L 452.937553,1046.185838" style="fill:none;stroke:#000000;stroke-linecap: round"/><path d="M 448.291266,1038.552422 L 449.361462,1052.990997" style="fill:none;stroke:#000000;stroke-linecap: round"/><path d="M 444.146366,1039.227261 L 444.684353,1045.346219" style="fill:none;stroke:#000000;stroke-linecap: round"/><path d="M 440.001468,1039.902101 L 441.020453,1049.916221" style="fill:none;stroke:#000000;stroke-linecap: round"/><path d="M 435.856570,1040.576940 L 436.305593,1044.460315" style="fill:none;stroke:#000000;stroke-linecap: round"/><path d="M 431.711671,1041.251779 L 432.423557,1046.747117" style="fill:none;stroke:#000000;stroke-linecap: round"/><path d="M 427.566773,1041.926618 L 427.796344,1043.526308" style="fill:none;stroke:#000000;stroke-linecap: round"/><path d="M 423.421875,1042.601457 L 423.560241,1043.479800" style="fill:none;stroke:#000000;stroke-linecap: round"/><path d="M 631.869431,1045.163249 L 631.585842,1047.986565" style="fill:none;stroke:#000000;stroke-linecap: round"/><path d="M 627.699934,1044.744442 L 626.545292,1056.239652" style="fill:none;stroke:#000000;stroke-linecap: round"/><path d="M 623.530437,1044.325634 L 621.256141,1066.967719" style="fill:none;stroke:#000000;stroke-linecap: round"/><path d="M 619.360940,1043.906827 L 618.241286,1055.053701" style="fill:none;stroke:#000000;stroke-linecap: round"/><path d="M 615.191442,1043.488020 L 612.987124,1065.433431" style="fill:none;stroke:#000000;stroke-linecap: round"/><path d="M 611.021945,1043.069212 L 609.937281,1053.867749" style="fill:none;stroke:#000000;stroke-linecap: round"/><path d="M 606.852448,1042.650405 L 604.718108,1063.899143" style="fill:none;stroke:#000000;stroke-linecap: round"/><path d="M 602.682951,1042.231598 L 601.633275,1052.681798" style="fill:none;stroke:#000000;stroke-linecap: round"/><path d="M 598.513454,1041.812790 L 596.449091,1062.364855" style="fill:none;stroke:#000000;stroke-linecap: round"/><path d="M 594.343957,1041.393983 L 593.339399,1051.395006" style="fill:none;stroke:#000000;stroke-linecap: round"/><path d="M 590.174460,1040.975176 L 588.237449,1060.259372" style="fill:none;stroke:#000000;stroke-linecap: round"/><path d="M 586.004963,1040.556369 L 585.072510,1049.839542" style="fill:none;stroke:#000000;stroke-linecap: round"/><path d="M 581.835466,1040.137561 L 580.042664,1057.986060" style="fill:none;stroke:#000000;stroke-linecap: round"/><path d="M 577.665968,1039.718754 L 576.805620,1048.284079" style="fill:none;stroke:#000000;stroke-linecap: round"/><path d="M 573.496471,1039.299947 L 571.847879,1055.712748" style="fill:none;stroke:#000000;stroke-linecap: round"/><path d="M 569.326974,1038.881139 L 568.538730,1046.728616" style="fill:none;stroke:#000000;stroke-linecap: round"/><path d="M 565.395871,1037.450743 L 559.739185,1052.353680" style="fill:none;stroke:#000000;stroke-linecap: round"/><path d="M 561.478120,1035.963688 L 558.581055,1043.596209" style="fill:none;stroke:#000000;stroke-linecap: round"/><path d="M 557.560369,1034.476633 L 551.628796,1050.103780" style="fill:none;stroke:#000000;stroke-linecap: round"/><path d="M 553.642618,1032.989579 L 550.608109,1040.984204" style="fill:none;stroke:#000000;stroke-linecap: round"/><path d="M 549.724867,1031.502524 L 543.518385,1047.853937" style="fill:none;stroke:#000000;stroke-linecap: round"/><path d="M 545.807115,1030.015469 L 542.635108,1038.372346" style="fill:none;stroke:#000000;stroke-linecap: round"/><path d="M 541.889364,1028.528414 L 535.407816,1045.604509" style="fill:none;stroke:#000000;stroke-linecap: round"/><path d="M 537.971613,1027.041359 L 534.662073,1035.760577" style="fill:none;stroke:#000000;stroke-linecap: round"/><path d="M 534.053862,1025.554304 L 527.297248,1043.355080" style="fill:none;stroke:#000000;stroke-linecap: round"/><path d="M 530.136111,1024.067249 L 526.689038,1033.148808" style="fill:none;stroke:#000000;stroke-linecap: round"/><path d="M 526.218360,1022.580194 L 519.186680,1041.105652" style="fill:none;stroke:#000000;stroke-linecap: round"/><path d="M 522.300609,1021.093139 L 518.716002,1030.537038" style="fill:none;stroke:#000000;stroke-linecap: round"/><path d="M 518.382858,1019.606085 L 511.076111,1038.856223" style="fill:none;stroke:#000000;stroke-linecap: round"/><path d="M 514.465107,1018.119030 L 510.742967,1027.925269" style="fill:none;stroke:#000000;stroke-linecap: round"/><path d="M 511.192518,1016.047378 L 500.407970,1035.897861" style="fill:none;stroke:#000000;stroke-linecap: round"/><path d="M 510.097622,1012.002466 L 503.331529,1019.296604" style="fill:none;stroke:#000000;stroke-linecap: round"/><path d="M 509.002726,1007.957555 L 505.009234,1012.243008" style="fill:none;stroke:#000000;stroke-linecap: round"/><path d="M 507.907831,1003.912643 L 506.005456,1006.010201" style="fill:none;stroke:#000000;stroke-linecap: round"/><path d="M 504.408178,992.023942 L 498.742681,1035.435603" style="fill:none;stroke:#000000;stroke-linecap: round"/><path d="M 500.252936,991.481656 L 497.458611,1012.893068" style="fill:none;stroke:#000000;stroke-linecap: round"/><path d="M 496.097695,990.939371 L 490.585892,1033.173356" style="fill:none;stroke:#000000;stroke-linecap: round"/><path d="M 491.942453,990.397086 L 489.205766,1011.366848" style="fill:none;stroke:#000000;stroke-linecap: round"/><path d="M 487.787211,989.854800 L 482.151327,1033.039554" style="fill:none;stroke:#000000;stroke-linecap: round"/><path d="M 483.631970,989.312515 L 480.732773,1011.527507" style="fill:none;stroke:#000000;stroke-linecap: round"/><path d="M 479.476728,988.770230 L 473.515824,1034.445443" style="fill:none;stroke:#000000;stroke-linecap: round"/><path d="M 475.321487,988.227944 L 472.259779,1011.688166" style="fill:none;stroke:#000000;stroke-linecap: round"/><path d="M 471.166245,987.685659 L 464.880320,1035.851333" style="fill:none;stroke:#000000;stroke-linecap: round"/><path d="M 467.011004,987.143374 L 463.786786,1011.848825" style="fill:none;stroke:#000000;stroke-linecap: round"/><path d="M 462.855762,986.601088 L 456.244816,1037.257222" style="fill:none;stroke:#000000;stroke-linecap: round"/><path d="M 458.700521,986.058803 L 455.313792,1012.009485" style="fill:none;stroke:#000000;stroke-linecap: round"/><path d="M 454.545279,985.516518 L 447.609312,1038.663111" style="fill:none;stroke:#000000;stroke-linecap: round"/><path d="M 450.390038,984.974232 L 446.840799,1012.170144" style="fill:none;stroke:#000000;stroke-linecap: round"/><path d="M 446.234796,984.431947 L 443.967482,1038.866493" style="fill:none;stroke:#000000;stroke-linecap: round"/><path d="M 442.063442,984.351277 L 442.199182,1011.061943" style="fill:none;stroke:#000000;stroke-linecap: round"/><path d="M 437.880503,984.602525 L 441.190415,1039.708130" style="fill:none;stroke:#000000;stroke-linecap: round"/><path d="M 433.697564,984.853773 L 435.365301,1012.619368" style="fill:none;stroke:#000000;stroke-linecap: round"/><path d="M 429.514625,985.105020 L 432.875662,1041.061799" style="fill:none;stroke:#000000;stroke-linecap: round"/><path d="M 425.331685,985.356268 L 427.024985,1013.547451" style="fill:none;stroke:#000000;stroke-linecap: round"/><path d="M 421.148746,985.607516 L 424.560909,1042.415469" style="fill:none;stroke:#000000;stroke-linecap: round"/><path d="M 416.965807,985.858763 L 418.673603,1014.291277" style="fill:none;stroke:#000000;stroke-linecap: round"/><path d="M 412.782868,986.110011 L 416.161079,1042.352707" style="fill:none;stroke:#000000;stroke-linecap: round"/><path d="M 408.599929,986.361259 L 410.270344,1014.171441" style="fill:none;stroke:#000000;stroke-linecap: round"/><path d="M 404.416989,986.612507 L 407.720440,1041.610539" style="fill:none;stroke:#000000;stroke-linecap: round"/><path d="M 400.234050,986.863754 L 401.867085,1014.051605" style="fill:none;stroke:#000000;stroke-linecap: round"/><path d="M 396.051111,987.115002 L 399.279801,1040.868371" style="fill:none;stroke:#000000;stroke-linecap: round"/><path d="M 391.868172,987.366250 L 393.463827,1013.931769" style="fill:none;stroke:#000000;stroke-linecap: round"/><path d="M 387.685233,987.617498 L 390.839162,1040.126203" style="fill:none;stroke:#000000;stroke-linecap: round"/><path d="M 383.559372,988.304201 L 388.859803,1014.361210" style="fill:none;stroke:#000000;stroke-linecap: round"/><path d="M 379.452991,989.139508 L 389.806057,1040.035365" style="fill:none;stroke:#000000;stroke-linecap: round"/><path d="M 375.346610,989.974814 L 380.399246,1014.813663" style="fill:none;stroke:#000000;stroke-linecap: round"/><path d="M 371.240228,990.810121 L 381.097706,1039.269657" style="fill:none;stroke:#000000;stroke-linecap: round"/><path d="M 367.133847,991.645427 L 371.938689,1015.266115" style="fill:none;stroke:#000000;stroke-linecap: round"/><path d="M 363.027465,992.480734 L 372.389355,1038.503950" style="fill:none;stroke:#000000;stroke-linecap: round"/><path d="M 358.921084,993.316040 L 363.478131,1015.718568" style="fill:none;stroke:#000000;stroke-linecap: round"/><path d="M 354.814702,994.151346 L 363.681004,1037.738243" style="fill:none;stroke:#000000;stroke-linecap: round"/><path d="M 350.708321,994.986653 L 355.017574,1016.171021" style="fill:none;stroke:#000000;stroke-linecap: round"/><path d="M 346.601939,995.821959 L 354.972653,1036.972535" style="fill:none;stroke:#000000;stroke-linecap: round"/><path d="M 342.495558,996.657266 L 346.557017,1016.623474" style="fill:none;stroke:#000000;stroke-linecap: round"/><path d="M 338.389176,997.492572 L 346.264302,1036.206828" style="fill:none;stroke:#000000;stroke-linecap: round"/><path d="M 334.229333,997.644824 L 333.398331,1016.323652" style="fill:none;stroke:#000000;stroke-linecap: round"/><path d="M 330.042996,997.458578 L 328.389051,1034.635094" style="fill:none;stroke:#000000;stroke-linecap: round"/><path d="M 325.856659,997.272332 L 325.033716,1015.770019" style="fill:none;stroke:#000000;stroke-linecap: round"/><path d="M 321.670322,997.086086 L 320.032495,1033.900319" style="fill:none;stroke:#000000;stroke-linecap: round"/><path d="M 317.483985,996.899840 L 316.669101,1015.216386" style="fill:none;stroke:#000000;stroke-linecap: round"/><path d="M 313.297647,996.713595 L 311.675938,1033.165544" style="fill:none;stroke:#000000;stroke-linecap: round"/><path d="M 309.111310,996.527349 L 308.304485,1014.662753" style="fill:none;stroke:#000000;stroke-linecap: round"/><path d="M 304.924973,996.341103 L 303.319382,1032.430769" style="fill:none;stroke:#000000;stroke-linecap: round"/><path d="M 300.738636,996.154857 L 299.939870,1014.109120" style="fill:none;stroke:#000000;stroke-linecap: round"/><path d="M 296.552299,995.968612 L 294.962825,1031.695995" style="fill:none;stroke:#000000;stroke-linecap: round"/><path d="M 292.365962,995.782366 L 291.575254,1013.555486" style="fill:none;stroke:#000000;stroke-linecap: round"/><path d="M 288.179625,995.596120 L 286.606269,1030.961220" style="fill:none;stroke:#000000;stroke-linecap: round"/><path d="M 283.993288,995.409874 L 283.226946,1012.635324" style="fill:none;stroke:#000000;stroke-linecap: round"/><path d="M 279.806951,995.223628 L 278.320250,1028.640924" style="fill:none;stroke:#000000;stroke-linecap: round"/><path d="M 275.620614,995.037383 L 274.900255,1011.229228" style="fill:none;stroke:#000000;stroke-linecap: round"/><path d="M 271.645448,993.870231 L 259.933772,1023.223810" style="fill:none;stroke:#000000;stroke-linecap: round"/><path d="M 267.753328,992.317329 L 261.824982,1007.175849" style="fill:none;stroke:#000000;stroke-linecap: round"/><path d="M 263.861208,990.764426 L 251.859499,1020.844929" style="fill:none;stroke:#000000;stroke-linecap: round"/><path d="M 259.969088,989.211523 L 253.895725,1004.433506" style="fill:none;stroke:#000000;stroke-linecap: round"/><path d="M 256.076968,987.658621 L 243.785226,1018.466047" style="fill:none;stroke:#000000;stroke-linecap: round"/><path d="M 252.184848,986.105718 L 245.966469,1001.691162" style="fill:none;stroke:#000000;stroke-linecap: round"/><path d="M 248.292727,984.552815 L 235.710953,1016.087166" style="fill:none;stroke:#000000;stroke-linecap: round"/><path d="M 244.400607,982.999912 L 238.037212,998.948819" style="fill:none;stroke:#000000;stroke-linecap: round"/><path d="M 240.508487,981.447010 L 227.636680,1013.708284" style="fill:none;stroke:#000000;stroke-linecap: round"/><path d="M 236.616367,979.894107 L 230.107955,996.206475" style="fill:none;stroke:#000000;stroke-linecap: round"/><path d="M 232.668412,978.500049 L 222.388106,1012.161924" style="fill:none;stroke:#000000;stroke-linecap: round"/><path d="M 228.660667,977.276087 L 223.514464,994.126832" style="fill:none;stroke:#000000;stroke-linecap: round"/><path d="M 224.652921,976.052125 L 214.348418,1009.793232" style="fill:none;stroke:#000000;stroke-linecap: round"/><path d="M 220.645176,974.828163 L 215.486875,991.718525" style="fill:none;stroke:#000000;stroke-linecap: round"/><path d="M 216.637430,973.604202 L 206.308730,1007.424540" style="fill:none;stroke:#000000;stroke-linecap: round"/><path d="M 212.629685,972.380240 L 207.459285,989.310217" style="fill:none;stroke:#000000;stroke-linecap: round"/><path d="M 208.621940,971.156278 L 198.269042,1005.055848" style="fill:none;stroke:#000000;stroke-linecap: round"/><path d="M 204.614194,969.932316 L 199.425961,986.920687" style="fill:none;stroke:#000000;stroke-linecap: round"/><path d="M 200.606449,968.708355 L 190.197874,1002.790235" style="fill:none;stroke:#000000;stroke-linecap: round"/><path d="M 196.598703,967.484393 L 191.378361,984.577902" style="fill:none;stroke:#000000;stroke-linecap: round"/><path d="M 192.590958,966.260431 L 182.118164,1000.552589" style="fill:none;stroke:#000000;stroke-linecap: round"/><path d="M 188.583212,965.036469 L 183.330761,982.235118" style="fill:none;stroke:#000000;stroke-linecap: round"/><path d="M 184.575467,963.812508 L 174.038455,998.314943" style="fill:none;stroke:#000000;stroke-linecap: round"/><path d="M 180.567722,962.588546 L 175.283161,979.892333" style="fill:none;stroke:#000000;stroke-linecap: round"/><path d="M 176.559976,961.364584 L 165.958746,996.077297" style="fill:none;stroke:#000000;stroke-linecap: round"/><path d="M 172.550896,960.145304 L 167.887783,977.732704" style="fill:none;stroke:#000000;stroke-linecap: round"/><path d="M 168.500374,959.071351 L 159.185961,994.201598" style="fill:none;stroke:#000000;stroke-linecap: round"/><path d="M 164.449851,957.997398 L 159.798551,975.540245" style="fill:none;stroke:#000000;stroke-linecap: round"/><path d="M 160.399329,956.923444 L 151.108542,991.964587" style="fill:none;stroke:#000000;stroke-linecap: round"/><path d="M 156.348807,955.849491 L 151.709319,973.347786" style="fill:none;stroke:#000000;stroke-linecap: round"/><path d="M 152.298285,954.775538 L 143.031122,989.727575" style="fill:none;stroke:#000000;stroke-linecap: round"/><path d="M 148.247762,953.701585 L 143.620088,971.155327" style="fill:none;stroke:#000000;stroke-linecap: round"/><path d="M 144.197240,952.627632 L 134.953703,987.490563" style="fill:none;stroke:#000000;stroke-linecap: round"/><path d="M 140.146718,951.553679 L 135.530856,968.962868" style="fill:none;stroke:#000000;stroke-linecap: round"/><path d="M 136.096196,950.479726 L 126.876284,985.253551" style="fill:none;stroke:#000000;stroke-linecap: round"/><path d="M 132.045673,949.405773 L 127.441624,966.770409" style="fill:none;stroke:#000000;stroke-linecap: round"/><path d="M 127.995151,948.331819 L 118.798865,983.016539" style="fill:none;stroke:#000000;stroke-linecap: round"/><path d="M 123.944629,947.257866 L 119.352392,964.577950" style="fill:none;stroke:#000000;stroke-linecap: round"/><path d="M 119.894107,946.183913 L 110.721446,980.779528" style="fill:none;stroke:#000000;stroke-linecap: round"/><path d="M 115.843585,945.109960 L 111.207278,962.596258" style="fill:none;stroke:#000000;stroke-linecap: round"/><path d="M 111.793062,944.036007 L 102.377136,979.549123" style="fill:none;stroke:#000000;stroke-linecap: round"/><path d="M 107.742540,942.962054 L 102.962920,960.988872" style="fill:none;stroke:#000000;stroke-linecap: round"/><path d="M 103.584903,942.511709 L 100.595335,979.322488" style="fill:none;stroke:#000000;stroke-linecap: round"/><path d="M 99.408177,942.172499 L 97.921112,960.482846" style="fill:none;stroke:#000000;stroke-linecap: round"/><path d="M 95.231450,941.833288 L 92.272758,978.263900" style="fill:none;stroke:#000000;stroke-linecap: round"/><path d="M 91.054724,941.494078 L 89.583097,959.614342" style="fill:none;stroke:#000000;stroke-linecap: round"/><path d="M 86.877998,941.154867 L 83.950180,977.205313" style="fill:none;stroke:#000000;stroke-linecap: round"/><path d="M 82.701272,940.815656 L 81.245082,958.745838" style="fill:none;stroke:#000000;stroke-linecap: round"/><path d="M 78.524546,940.476446 L 75.627603,976.146726" style="fill:none;stroke:#000000;stroke-linecap: round"/><path d="M 74.347819,940.137235 L 72.907067,957.877334" style="fill:none;stroke:#000000;stroke-linecap: round"/><path d="M 70.171093,939.798025 L 67.305025,975.088139" style="fill:none;stroke:#000000;stroke-linecap: round"/><path d="M 65.994367,939.458814 L 64.569052,957.008830" style="fill:none;stroke:#000000;stroke-linecap: round"/><path d="M 61.817641,939.119604 L 58.982448,974.029551" style="fill:none;stroke:#000000;stroke-linecap: round"/><path d="M 57.640914,938.780393 L 56.231037,956.140326" style="fill:none;stroke:#000000;stroke-linecap: round"/><path d="M 53.464188,938.441183 L 50.659870,972.970964" style="fill:none;stroke:#000000;stroke-linecap: round"/><path d="M 49.287462,938.101972 L 47.893022,955.271821" style="fill:none;stroke:#000000;stroke-linecap: round"/><path d="M 45.110736,937.762762 L 42.337293,971.912377" style="fill:none;stroke:#000000;stroke-linecap: round"/><path d="M 40.934010,937.423551 L 39.555007,954.403317" style="fill:none;stroke:#000000;stroke-linecap: round"/><path d="M 36.757283,937.084341 L 34.014716,970.853790" style="fill:none;stroke:#000000;stroke-linecap: round"/><path d="M 32.580557,936.745130 L 31.216992,953.534813" style="fill:none;stroke:#000000;stroke-linecap: round"/><path d="M 28.403831,936.405920 L 25.692138,969.795202" style="fill:none;stroke:#000000;stroke-linecap: round"/><path d="M 472.561101,726.226231 L 468.913842,736.666773" style="fill:none;stroke:#000000;stroke-linecap: round"/><path d="M 468.649645,724.697797 L 461.384511,746.331081" style="fill:none;stroke:#000000;stroke-linecap: round"/><path d="M 464.738188,723.169364 L 461.128712,734.363783" style="fill:none;stroke:#000000;stroke-linecap: round"/><path d="M 460.826736,721.640930 L 453.670756,744.788685" style="fill:none;stroke:#000000;stroke-linecap: round"/><path d="M 456.915279,720.112496 L 453.377187,732.067512" style="fill:none;stroke:#000000;stroke-linecap: round"/><path d="M 453.003827,718.584061 L 446.024265,743.259740" style="fill:none;stroke:#000000;stroke-linecap: round"/><path d="M 449.092370,717.055629 L 445.659343,729.777977" style="fill:none;stroke:#000000;stroke-linecap: round"/><path d="M 445.180914,715.527195 L 438.445292,741.744294" style="fill:none;stroke:#000000;stroke-linecap: round"/><path d="M 441.269462,713.998761 L 437.975353,727.495210" style="fill:none;stroke:#000000;stroke-linecap: round"/><path d="M 437.358005,712.470327 L 430.934243,740.242430" style="fill:none;stroke:#000000;stroke-linecap: round"/><path d="M 433.442428,710.960726 L 430.328337,725.229664" style="fill:none;stroke:#000000;stroke-linecap: round"/><path d="M 429.250085,710.716127 L 424.145806,738.885056" style="fill:none;stroke:#000000;stroke-linecap: round"/><path d="M 425.057739,710.471528 L 423.047852,724.367579" style="fill:none;stroke:#000000;stroke-linecap: round"/><path d="M 420.865393,710.226929 L 417.893093,737.634801" style="fill:none;stroke:#000000;stroke-linecap: round"/><path d="M 416.673047,709.982330 L 415.693216,723.490667" style="fill:none;stroke:#000000;stroke-linecap: round"/><path d="M 412.480702,709.737728 L 411.500894,736.356656" style="fill:none;stroke:#000000;stroke-linecap: round"/><path d="M 408.288356,709.493129 L 408.272945,722.600631" style="fill:none;stroke:#000000;stroke-linecap: round"/><path d="M 404.101213,709.487651 L 404.600288,734.976852" style="fill:none;stroke:#000000;stroke-linecap: round"/><path d="M 399.923473,709.914362 L 400.086377,722.010607" style="fill:none;stroke:#000000;stroke-linecap: round"/><path d="M 395.745734,710.341073 L 395.914172,733.240030" style="fill:none;stroke:#000000;stroke-linecap: round"/><path d="M 391.567994,710.767785 L 391.577069,718.058414" style="fill:none;stroke:#000000;stroke-linecap: round"/><path d="M 387.390254,711.194496 L 387.321065,725.412994" style="fill:none;stroke:#000000;stroke-linecap: round"/><path d="M 383.212515,711.621208 L 383.136463,718.549229" style="fill:none;stroke:#000000;stroke-linecap: round"/><path d="M 379.040635,711.645712 L 378.810008,725.340904" style="fill:none;stroke:#000000;stroke-linecap: round"/><path d="M 374.877097,711.097487 L 374.722661,718.007992" style="fill:none;stroke:#000000;stroke-linecap: round"/><path d="M 370.713562,710.549260 L 370.325036,724.495996" style="fill:none;stroke:#000000;stroke-linecap: round"/><path d="M 366.550023,710.001033 L 366.315234,717.037217" style="fill:none;stroke:#000000;stroke-linecap: round"/><path d="M 362.386488,709.452808 L 361.834441,723.650702" style="fill:none;stroke:#000000;stroke-linecap: round"/><path d="M 358.222950,708.904581 L 357.904986,716.066245" style="fill:none;stroke:#000000;stroke-linecap: round"/><path d="M 354.059415,708.356355 L 353.338191,722.805021" style="fill:none;stroke:#000000;stroke-linecap: round"/><path d="M 349.895876,707.808128 L 349.491906,715.095081" style="fill:none;stroke:#000000;stroke-linecap: round"/><path d="M 345.732341,707.259901 L 344.836250,721.958949" style="fill:none;stroke:#000000;stroke-linecap: round"/><path d="M 341.568802,706.711676 L 341.114559,713.543365" style="fill:none;stroke:#000000;stroke-linecap: round"/><path d="M 337.405267,706.163451 L 336.509609,718.599078" style="fill:none;stroke:#000000;stroke-linecap: round"/><path d="M 333.230319,705.765842 L 333.012971,711.387902" style="fill:none;stroke:#000000;stroke-linecap: round"/><path d="M 329.031709,705.680565 L 329.786310,715.722362" style="fill:none;stroke:#000000;stroke-linecap: round"/><path d="M 324.833099,705.595284 L 325.665524,709.955322" style="fill:none;stroke:#000000;stroke-linecap: round"/></symbol></defs><g inkscape:groupmode="layer" inkscape:label="0"/><g inkscape:groupmode="layer" inkscape:label="12_&#208;&#197;&#203;&#220;&#197;&#212;"/><g inkscape:groupmode="layer" inkscape:label="3"><use xlink:href="#%C3%97%C3%85%C3%90%C3%92%C3%85%C3%86_1_1" style="stroke-width:0.500px" transform="translate(-40.862, -60.7468)"/></g></svg>